/* XPM */
static char *fbe5b5fad72046e398539dbf5d92dc8aRJUhxjCBDe8yoKQm[] = {
/* columns rows colors chars-per-pixel */
"64 64 20 1 ",
"  c None",
". c #E9CFAF",
"X c #F4E4C0",
"o c #DBB19D",
"O c #CD8A86",
"+ c #FF778B",
"@ c #FFB898",
"# c #D84777",
"$ c #721830",
"% c #F0DD39",
"& c #BD6300",
"* c #E9CEAF",
"= c #DF9831",
"- c #8D271F",
"; c #A2432C",
": c #B97340",
"> c #B7B7B7",
", c white",
"< c #E2E2E2",
"1 c #EB7C00",
/* pixels */
"                                                                ",
"                                                                ",
"                                                                ",
"                                                                ",
"                                                                ",
"                                                                ",
"                                                                ",
"                                                                ",
"                                   .X   .   .                   ",
"                                    o.X oX  oX                  ",
"                                   oo..XXo.Xo.X                 ",
"                                 ....o...o....o .               ",
"                               ................o                ",
"                                oo.......X...X.o                ",
"                              ............XXX..Xo               ",
"                               oo......ooo.X.oo...              ",
"                               o......oOOOo.oOOo.               ",
"                              .......oO++@OoO+@O.               ",
"                             oo..++..O+##+@OO@#@.               ",
"                             $$..+#..+#%&#++@#&+.*              ",
"                            $$...+#..+#=%####=%+.               ",
"                            $ooo.++...+###++@##..               ",
"                        o  o$$$...+....++++++@+.X               ",
"                         oooo$..o.......#++++@+.X               ",
"                    oo  oo---o.Oo......#++-++-+.X-              ",
"                     oooo$-;:-OOo..o...#++#--#+.X-              ",
"                 o  ooooo$-;;-OOO.oo*..#+++##++X--              ",
"                  ooooooo$----oOOOOo*..#++++#++.$.              ",
"                 ooooXXXoO$$$oooOOOoo...>,##+,>.O.X             ",
"                ooXXX....oOOO---oOOOo*..+,<><,+.-O.X            ",
"              ooooX........o$-;:-oOOOo*.#+++@@+.:-..X           ",
"               oo..........o$-;;-ooOOo**..+++..o;-..X           ",
"              oo...........o$----ooooOo*...XX.o---..X           ",
"              o.............O$$$.---ooOooooooo$$$O...           ",
"             oo.......o.....oOOO$-;:-OOOO&$-;:-OOo...X          ",
"            oo.......ooo.**...oo$-;;-O==&&$-;;-OOoo..X          ",
"             o......ooOOo.*...oo$----O---&$----OOOo...          ",
"            o......oo  OOo*....oO$$$O$-;:-&$$$  OOoo..X         ",
"            o......o   Ooo......oOO%=$-;;-&&&    OOoo..         ",
"           oo.....o   OOoo....ooo%%%=$----=&&    OOOoo+@        ",
"           o.o....    OOooo..oo%%%%%==$$$==&      ###+++@       ",
"          ooo.....  &$OOOoooo%%%%%%=%%====&&       # # #+       ",
"          +#+o.#.+ &&$$$OO%%%%%%%%==%%%==&&        + + +#       ",
"         +#+#+###+@&&&$$$%%%%%%%===%%==&&                       ",
"         # + +   &+=&&&$$--%%=========&&                        ",
"           + +   &=&&=&&&$$$----11%--$&&=&                      ",
"                 &=&&=&%&&&&$$$$111$$&&=&%%                     ",
"                &==&=%&=%%==&&&&&&&&&&==%%%%                    ",
"                &==%=%%&=%%%%%%%%%%%%=%=%%%%                    ",
"                &==%&=%%&&=%%%%%%%%%%%%=%%%%%                   ",
"                &==%%&%%%%%%%%%%%%%%%%=%%%%%%=                  ",
"                &=%%%%=%%%%%%%%%%%%%%%=%%%%%%%                  ",
"                &=%%%%%=%%%%%%%%%%%%%%%%%%%%%%%                 ",
"                &==%%%%%%%%%%%%%%%%%%%%%%%%%%%%                 ",
"                &==%%%%%%%%%%%%%%%%=%=%%=%%%%%%                 ",
"                &===%%%%%%%%%%%=%%=%==%%%==%%%=                 ",
"                &====%%%%%%%%%%%%=&==%%%%======                 ",
"               OO&===%%%%%%%%%%=&&==%%%======&                  ",
"              ooOO&&===%%%%%%%=  &&========&&                   ",
"              oooOOO&&========    &&&&&&&&&                     ",
"              oooooOOO&&&&&&      OOOOOOOO                      ",
"               .oooooOOOOO         OOOooOoo..                   ",
"                ....ooOoOoOo       ooo...o.o.o.                 ",
"                 .....o.o.o.        o....o.o.o.                 "
};
