/* XPM */
static char *d94bf62f24b34a0ba3f4c38215b4ab07dZdOqipPqvu6JmtV[] = {
/* columns rows colors chars-per-pixel */
"64 64 256 2 ",
"   c #162512",
".  c #2D3112",
"X  c #181B38",
"o  c #0E1A34",
"O  c #231C39",
"+  c #0C253C",
"@  c #0B2A3D",
"#  c #072838",
"$  c #13243C",
"%  c #1B253B",
"&  c #122C3C",
"*  c #182836",
"=  c #173539",
"-  c #0B2F2E",
";  c #23273B",
":  c #36253B",
">  c #273539",
",  c #2D362E",
"<  c #141611",
"1  c #48393A",
"2  c #443C0D",
"3  c #3A4738",
"4  c #394F2B",
"5  c #264524",
"6  c #786A1B",
"7  c #594C39",
"8  c #58553A",
"9  c #505333",
"0  c #645439",
"q  c #6B5932",
"w  c #5B6B31",
"e  c #6E732E",
"r  c #656437",
"t  c #786839",
"y  c #747535",
"u  c #535715",
"i  c #121E45",
"p  c #0D2543",
"a  c #0C2C44",
"s  c #0B2D4B",
"d  c #072946",
"f  c #132C43",
"g  c #1C2C44",
"h  c #132C4A",
"j  c #1C2C4C",
"k  c #162545",
"l  c #0C3249",
"z  c #13334B",
"x  c #1B334B",
"c  c #183648",
"v  c #0B2954",
"b  c #132B53",
"n  c #162958",
"m  c #0E3553",
"M  c #1D3C53",
"N  c #153357",
"B  c #242C45",
"V  c #282A46",
"C  c #23344C",
"Z  c #29374A",
"A  c #37384B",
"S  c #243553",
"D  c #233C53",
"F  c #2C3C54",
"G  c #293859",
"H  c #333B54",
"J  c #343C5C",
"K  c #3A3954",
"L  c #302B50",
"P  c #162F64",
"I  c #283865",
"U  c #2D366A",
"Y  c #331D46",
"T  c #453C57",
"R  c #4B384C",
"E  c #493B66",
"W  c #523D6D",
"Q  c #643F78",
"!  c #1D405A",
"~  c #28444A",
"^  c #37444A",
"/  c #2A4257",
"(  c #33435B",
")  c #3C435A",
"_  c #394758",
"`  c #325652",
"'  c #3B4664",
"]  c #344865",
"[  c #48494A",
"{  c #574A4A",
"}  c #585448",
"|  c #43445C",
" . c #4B445C",
".. c #4A4B5D",
"X. c #464957",
"o. c #53445D",
"O. c #544B5C",
"+. c #5A4D5D",
"@. c #564A55",
"#. c #4B5459",
"$. c #585559",
"%. c #4C5646",
"&. c #665859",
"*. c #654E4C",
"=. c #686847",
"-. c #756F50",
";. c #4D4C63",
":. c #454C6B",
">. c #4C4C6B",
",. c #484665",
"<. c #524663",
"1. c #534C64",
"2. c #594C64",
"3. c #53466A",
"4. c #544D6A",
"5. c #5B4E6B",
"6. c #59436E",
"7. c #4C5264",
"8. c #4D526B",
"9. c #475569",
"0. c #535264",
"q. c #5B5265",
"w. c #54536B",
"e. c #5B536B",
"r. c #585A6B",
"t. c #4D4D73",
"y. c #494973",
"u. c #544C74",
"i. c #5B4D73",
"p. c #574879",
"a. c #4C5273",
"s. c #545272",
"d. c #5C5473",
"f. c #545A73",
"g. c #5D5B73",
"h. c #58567A",
"j. c #644D66",
"k. c #62536D",
"l. c #645667",
"z. c #634A76",
"x. c #635572",
"c. c #635C74",
"v. c #685977",
"b. c #745B72",
"n. c #5C6477",
"m. c #5B626E",
"M. c #64647C",
"N. c #6D6A7C",
"B. c #68657A",
"V. c #76667A",
"C. c #6F6E72",
"Z. c #57654D",
"A. c #897531",
"S. c #89724F",
"D. c #86697A",
"F. c #8D7573",
"G. c #768264",
"H. c #7A872D",
"J. c #AFB312",
"K. c #928C33",
"L. c #AC9B2C",
"P. c #B4B036",
"I. c #919526",
"U. c #DCBC01",
"Y. c #D6BB08",
"T. c #D6B918",
"R. c #C7B80E",
"E. c #E3BE03",
"W. c #C8B829",
"Q. c #D4BC2B",
"!. c #CAB637",
"~. c #C9AD30",
"^. c #E2BE22",
"/. c #BBC619",
"(. c #BBC92E",
"). c #DAC604",
"_. c #DBC41A",
"`. c #CDC712",
"'. c #E7C806",
"]. c #F5CB07",
"[. c #FED40D",
"{. c #FCDA0B",
"}. c #F8D706",
"|. c #E7C617",
" X c #F8CC19",
".X c #FDD513",
"XX c #F6DA15",
"oX c #F4D61C",
"OX c #FDD41B",
"+X c #F5D91B",
"@X c #FDDA1C",
"#X c #FAD813",
"$X c #E9D80E",
"%X c #C9C627",
"&X c #D8C636",
"*X c #CFC632",
"=X c #E8C926",
"-X c #FCCC24",
";X c #E7D72B",
":X c #FDD424",
">X c #FDDC23",
",X c #FDDC2B",
"<X c #F8D62A",
"1X c #FCD936",
"2X c #E8D43A",
"3X c #FEE32A",
"4X c #FEE234",
"5X c #FDE23B",
"6X c #FCE838",
"7X c #FAE20C",
"8X c #8E8A4F",
"9X c #A4934F",
"0X c #97A455",
"qX c #AEAC50",
"wX c #939170",
"eX c #A49164",
"rX c #92A272",
"tX c #B0B26F",
"yX c #C8B948",
"uX c #C8B75A",
"iX c #CBAF4D",
"pX c #D0BA6F",
"aX c #B8C64D",
"sX c #B2C46E",
"dX c #D6CC4B",
"fX c #E7D848",
"gX c #FFDC44",
"hX c #FEDD4A",
"jX c #F5DB46",
"kX c #E9DB56",
"lX c #E7CE52",
"zX c #FCE646",
"xX c #F7EC51",
"cX c #CECA6F",
"vX c #EDDC66",
"bX c #F4E56A",
"nX c #594B86",
"mX c #675884",
"MX c #695087",
"NX c #5D6B82",
"BX c #696985",
"VX c #726C84",
"CX c #796A84",
"ZX c #777489",
"AX c #7A7895",
"SX c #6D728D",
"DX c #7269A0",
"FX c #533C84",
"GX c #876986",
"HX c #87758A",
"JX c #8F738F",
"KX c #8A6C93",
"LX c #7B8199",
"PX c #969893",
"IX c #ECE782",
"UX c #B8C590",
/* pixels */
"GXJXGXGXJXJXGXJXJXD.GXV.T X Z _ g j J T R Y R GXGXGXD.D.D.D.D.D.o.T : : : R b.HXD.D.D.GXGXGXGXGXGXCXR : { &.R : : : : : R b.D.D.",
"GXJXb.j.j.V.GXJXJXV.JXHXN.; B Z g k ' h.JXGXb.GXJXV.b.V.D.D.D.JXCXVXB.V.V.V.V.D.D.D.D.D.GXGXGXGXJXJXV.l.V.HXV.V.V.CXV.b.V.HXHXF.",
"GXJXGXk.b.GXHXGXCXb.HXV.ZX% * ( @ f f.g.JXHXGXGXCXl.j.b.V.l.b.HXV.g.1.1.e.c.V.HXl.&.j.j.j.j.b.b.V.HXCXb.V.CXCXCXVXAXAXCXV.D.V.V.",
"R o.2. .o.5.2.T k.k.k.2.VX_ * ~ + x SX>.d.T k.x.e.O.O.l.l.+.+.l.e.;.0.1.1.q.O.O.+.+.2.+.2.j.k.k.<.k.k.1.1.0.e.r.;.w.d.e.q.q.+.+.",
"2.1.q.w.0.e.k.k.o.k. .;.ZXSX* # & g NX7.g. . .:  .1.0.0.O.O.O.O.w.;.r.;.1.r...0.q.q.e.e.e.e.5.5.1.1.w.0.;.;.w.>.>.s.w.1.;.O.O.@.",
"e. .;.w.;.;.1. .T c.2.1.r.SX* & & & n.w.g.e.1.A ;.w.w.X...w.r.1.;.K ;.A A w.1.M.1.1.1.4.1.4.3.<.e. .1.d.w.s.h.a.h.s.w.;.1.0.0.0.",
"0.;.w.r.7.w.;.A  .k.x.<.;.n.* Z * = n.n. .<.e.1.w.w.7.7.7.0.1. .K K B.r.w.g.K T r.w.w.w.s.s.s.w.1.K  .s.>.y.s.y.4.;.|  .;.0.0.0.",
"e.1.w.;.| r.r.A k.T 1.<.ZXLX; o * B M.VXO.2.e.<.w.;.;.w.r...K A ; V d.;.;.v.,.d.4.1.4.<.4.4.u.s.1.T ,.d.>.>.h.4.w...X. .1.0.4.1.",
"1.1.1.w.8.8.1.1.<.x.<.k.VXZX; X ; * r.PXo.5.2.1.1.8.;.,.) K V O A v.<.1.e.1.V 4.4.3.4.i.s.i.s.e.1.VX<.s.BX3.d. .e. .R l.q.e.,.d.",
"5.e.e.w.w.w.w.w.5.v.o.o.e.VX; V ; * 0.ZXo.5.2.1.w.w.;.;.s.BXZXZXL e. .<.4.4.L 4.v.d.i.4.1.<.<.1. .v. .<.4.T q.l.$.$.$.b.l.5.<.3.",
"2.2.1.;.;.;.;.1.<.k.2.2.1.ZXX ; ; % 1.VX<.5.2.2.w.w.8.;.1.d.d.d.<.g.5.d.d.d.3.d.<.3.5.5.e.e.e.2. .e.d.x.c.2.@.$.7 } =.} $.2.d.p.",
"5.5.5.w.w.w.r.r. .e.5.x.g.PXo % % ; g.ZXe.5.1.;.;.8.8.>.>.w.2.<.s.w.1.s.>.3.3.3.4.5.5.1.1.2.2.O.e.1.1. .1.$.{ } wXwXwX=.@. .h.u.",
"5.5.w.8.8.8.8.8.w.d.1.d.M.AX$ g $ C BXSXg.1.,.,.w.f.9.;.;.w.d.d.h.:.8.:.:.>.s.;.h.w.<.T T  .q.q.0...0.0.$.$.} =.UXtXtX=.%.X.h.y.",
"5.4.>.;.:._ _ _ ,.;.| g.AXNX& f $ C NXn.f.| _ _ 9.9.9.9.7.8.;.| 8.' :.:.a.:.h.a.,.8.;.X.X.O.$.O.....7.0.[ %.-.8XtX0X8Xw %.#.a.nX",
"w.w.w.8.9.' _ _ Z ( H f.LX_ & a @ f 9.( ' F F F C / ' 9.9.w.;.) F D / x ( G ' ' >.f.r.0.0.r.$.[ m.#.> A , 9 rXtXsX0Xe w 9 X.] ] ",
"H H ( ( / / D D D / g _ NX+ f ! a @ / f D C C D / / / D D F F C x c / f / c ~ ~ Z ( _ _ $.G.rXrX%.9 4 G.8X8XtX0X8Xw . 5 , ~ S U ",
"x M M / ! M M M M D h @ M z # @ d l a D z D z D x D / c a M / & = = f c M c = = ~ c ( C [ UXaXP.aXqXP.aXP.aXqX0XrX4 = ~ / G / G ",
"a @ a a d p a @ a z # # z M h z d d d h p a + f f f a # @ z M a - * f h a # - - = # h $ 3 tXaX(.aXP.J././.(.I.u 5 - @ h + + f + ",
"f + + + f f $ + $ x f $ x C f + h p h f x & f g & + + @ @ d d # f g j h v h a # h p j g > G.y H.sXqX*X/./.J.I.2   * x z + f x $ ",
"g % k g B C C g $ g g g C F F C x f C g F g Z C D F ( ] ] M z M G S j i n I I h h h g C ; 3   . w 6 P././.J.qXr   % g + + g g o ",
"O X X ; V V V B H Z B % % B H H g $ B % F % B % % % + f D z # p o k k i j U U n G G g Z ; ; < , < 2 L.%X%XJ.K.y , B $ $ $ % g C ",
"BXB.BXN.VXVXVXVXVXg.g.BXM.M.M.n.SXM.BXBXZXN.M.M.f.) $ $ ] / h j F w.BXSXBXBXSXDXh.BX8.n.r.X.% ^ &.-.P.%X%XJ.I.y   ; B B Z % V :.",
"HXHXHXCXCXN.VXVX .; A g.BXBXBXM.VXN.B.VXN.ZXVXVXZXM.H $ S S p C | c.ZXZXN.c.B.N.N.HXB.ZXZXm.^ #.wXtXP.W.`.`.L.qX-.C.N.BXBXM.BXPX",
"GXGXGXV.x.e.e.e.c.; o A ..;.7...r.q. .l.q.N.B.VXVXAXg.H F j j :.N.N.V.N.b.&.} } { l.K ;.r.7.[ -.y uX*X%XR.`.J.P.eXwXc.w.M.B.B.N.",
"5.2.2.x.v.x.e.1.r.M.| % o 7.w.;.q.2.O.+.+.2.2.q.r.g.n.B ' G i :.N.q.2.2.@.{ } 8 { l.i.y.h.$.8 tXdX*X&X;X_.).`.%XP.8X&. .s.d.[ &.",
"2.1.1.e.e.1.1.1...M.7.) ; A _ w.q.2.2.2.2.2.2.q. .c.M.% g X g SXc.2.5.i.O.{ 8 8 { o.p.nXi.R u cX&X;X;X;X$X).)._.W.9X-.O.s.d.[ $.",
"5.1.1.0.1.;.1.w.| r.w.g.| Z ; 0.0.2.2.2.2.2.2.2.<.B.BXB B X k SXi.6.z.MX3.@.} } l.<.FXnXz.&.K.dX;X$X>X>XXX}.$X$X_.P.8X&.5.x.@.{ ",
"w.1.1.1.1.1.0.w.;.0.;.g.n._ ; | 1.4.e.2.1.2.2.1.e.B.VXV L g k BXx.6.nXnXp.1.$.@.2.i.MXp.j.F.uXzX$X}.+X>X.X}.}.7X).W.9X=.@.x.O.@.",
";. .| ;.w.1.1.1.w.w.;.1.c.;.K | ,.4.r.4.1.1.1.1.1.B.ZXV ; o B AXVXz.p.p.p.u.w...T 3.z.j.0 9XlX5X$X}.#XOXOX[.}.}.).%XqX-.{ k.5.2.",
"1. . .1.r.e.4.1.1.4.d.;.1.1.e.,.T >.s.4.1.w.w.<.1.M.BXV V % % BXCXl.3.p.u.u.s.,.;.A : =.9X!.2X>X}.{.OXOXOXOX[.{.$X_.yXK.7 2.i.p.",
"e.1.4.w.d.e.5.5.5.<.v.1.<.5.B.T K :.s.>.>.w.w.;.w.c.M.V J V X ;.C.&.+.1.>.t.a.:.m.[ 2 K.lXjX,X].[..X@X-X-X:XOX X|.`.*XK.8 +.p.nX",
"e.5.4.4.1.;.;.w.c.T i.6.i.z.VXK K ,.s.>.>.w.w.;.;.M.VXV V ; B ZXV.&.q.q.;.>.w.O.&.S.K.yXfX<X>X].[..XOX X X-XOX X_.R.!.K.8 @.i.nX",
"q.O.w.s.s.8.) g.0.3.p.nXnXnXy.>.BXd.4.3.4.i.i.4.d.s.AXO A V O VXh.i.3.5.o.{ *.0 t pXvXlXjX5X,X3X#X[.[.[.[.[..XOX|.W.cXy 0 [ v.i.",
"@.q.h.:.a.n.#.#.$.q.i.W W u.s.w.4.4.4.4.u.u.i.h.i.d.AXO L O ; AXv.mX5.@.{ -.9XK.L.kXhX2XgX5X1X6X+X#X[.[.[.[.}.].T.~.uXt } @.x.4.",
"#.0.h.:.:.8.#.=.=.S.F.&.@.&.$.@.8.f.f.a.' J J J h.NXAXB B o % SXHX&.1 0 q 6 yXbX2XzX5X<X5X5X1X5X:XOXOXOX.X[.].'._.fXqX=.@.;.w.;.",
"#.X.a.' J Z 9 eXcXcXtX8Xq 7 9 8 [ _ X._ H Z H _ _ _ m.* * * > C.9 . u uXIXvXfX;X<X3X3X3X6X4X<X,X<X:X<X<X:X[.'.).J.dXe 9 H :.f.9.",
"~ ~ ] I F ^ r qXL.W.fXvXdXL.6 u 8 9 3 , , , , 3 , , 3   . . . 9 9XcXbXvX*X*XzX5X,X3X3X3X3X@X X>X:X<X1X1X:X[.'.).`.aX9 > j I / ~ ",
"& c D k _ C.8XL.R.Y.|.<XfXdXdXvXqX0X8Xy e e e e e e 8X8XtXcXcXvXlXfXfXzXzXxXxX1X4X,X>X3X@X.X.X@X:X1X1X<X X'.).).*XqX3 C d b @ - ",
"# z z + #.PXqXJ.$X}.{.@X,X1XjXfXxXfXfXdXfXfXkXkXkXfXfXfXfXfX2X2XzX5X2XxXzX<X1X1XzX,X:X:XOXOX@X@X:X:X-X X|.).).%XI.2   + d N @ - ",
"d d s & Z.tXdX;X'.}.}.]. X3X4X;X4X5X5X5X5X5X5X5XzX5X5X5X1X6X4X4X5XzX5X5X1X5XzX,X,X-X-X:XOX>X>X XOXOX X].E.Y.Q.yXy . * h N M # # ",
"m s M = -.tXdX;X].{.{.[.@X>X+X<X1XgXgXhXhXhXhXhXhXhXhXgXgXgXgXgXzXzXzX1X,X>XOX.X]..X@XOXOX:X1X:X>X'.].'.E.^.~.qX-.> $ S x + & g ",
"b s x = =.qXkX<X#X{.[.].OX@X#XoX1XgXgXgXgXhXhXhXhXhXgXgX1X1X1X1XgX1X1X,X@X.X[.}.{.{.[.[. XOX:X XOXE.E.'.E.~.6 . A X o g g * % $ ",
"I G F ^ =.K.kX=XoX@XOX X:X@X.X{.>X,X,X,X,X4X4X4X4X4X3X3X>X>X>X>X:X:X:XOX.X[.}.}.}.}.}.}.[.#X#X].oXU.'.U.Q.iXS.: Y L V B X.m.M.BX",
"BXBXBXC.-.K.vXQ.T.:X,X<X:XOX[.#XXX+X+X+X>X>X>X>X>X>X@X+XXXXXXXXX#X#X.X.X[.[.[.{.}.{.{.{.{.}.'.)._.T._.R.L.9XF.mXMXDXM.r.C.ZXKXKX",
"ZXAXCXVX&.q uX~.T.=X:X-X:XOX].{.XXoXoX+XoXoX+XoXoXoX+X+XXXXXXX{.}.}.}.{..XOX@X@X@X@X#X].'.'.).Y.Q.!.dXP.A.S.b.mXnXSXN.C.C.V.z.MX",
"j.j.x.5.@.7 tXuX&X=X|.|.:X>X[.].XX+X+X+XoXoXoXoXoX+X+XXXXXXXXX{.}.}.{.[..XOX:X:X:X:XoX|.).).)._.yXqXqX8Xt &.5.h.y.;.#.$.l.j.z.MX",
"*.+.z.z.z.&.eXuX~._.Y.'. X@X#X#X.X.X.X.XOXOXOXOXOXOXOX.X.X.X[..XOX@X@XOXOXOX.XOX X|.|.|._._.T.~.9Xt 0 } @.2.3.s.n.#.%.} [ o.Q Q ",
"*.o.v.6.z.T 7 t I.P._._.|.|.|.+X@X@XOXOXOXOXOX.X.X.X.X.X[.[.[.[.OX:XOXOX.X X X XU.Y.T.Q.!.P.I.6 8X} { q.d.i.>.>...^ #.$.@.j.MXQ ",
"<.5.i.3.y.4.$.} r A.K.L.W.%X_.|.=X-X X XOX:XOX[.[.[.[.[..X.X.X.X.XOX.X].'.'.E.U.|.T.Q.yX9X0Xw   { b.l.q.e.4.h.1.0.0.0.0.1.4.5.i.",
"2.4.s.4.t.t.>.X.[ 8 r K.qXP.P.W.T.^.=X|.|. X].].[.[.[.].].].'.E.'.E.U.U.Y.Y.T.=XQ.!.uX8X. , - o v.CXk.2.e.<.<.K w.w.1.1.4.4.4.4.",
"O.2.w.4.s.t.,.K K A 1 7 t t 8XuX~.T.T.T.Y.Y.'.'.Y.U.U.U.U.'.'.'.'.)._.=X&X!.~.iXA.A.S.&.O B n n v.V.2.o.e.q.1.K w.w.4.4.4.4.4.4.",
"+.O.1.1.4.y.J L i L  .l.&.{ *.t A.L.yXlXlXdXW.W.Q.&X&XQ.W.Q.W.W.Q.W.!.uXqX9XS.S.*.1 @.k.L I v k d.b.o.o.e.e.e. .w.1.4.4.4.4.4.4.",
"+.+.<.;.4.t.y.U nXp.E L T k.j.j.*.*.7 7 0 =.S.8XeXeXeXeXeX8XS.S.-.t 0 *.{ R R o.l.+.c.B.; * # & c.V.k.1.e.1.e...1.1.4.4.4.4.5.5.",
"5.q.1.1.4.s.u.y.y.h.u.E i.mXi.E E 3.5.k.k.q.@.: 1 [ { @.&.l.l.l.l.e.5.u.p.p.nXmX<. .B.N.> = - = c.CXk.2.2.<.e.0.1.1.4.4.4.4.4.4.",
"4.5.5.4.w.w.w.>.;.g.w.T T  .5.v.h.h.s.1.;...A : X.@.@.@.O.$.0.1.,.y.u.y.y.t.t.,.0.0.C.C.^ ~ # # e.CXk.2.2.2.e.r.1.1.4.4.4.4.4.4.",
"3.4.s.4.1.0.0.;...#.#.0.r.0.X...,.t.a.8.a.w.;.| 0.0.0...#.0.w.w.8.f.a.( ( 8.f.7.#.0.C.B.= c d h M.CXk.1.1.;.w.1.0.w.w.w.1.1.4.4.",
"u.u.h.s.>.;.7.7.#.#.#.#.#.X.X.7.:.h.h.t.:.:.s.f.8.:.>.8.8.8.8.8.#.#.#.#.#.7.X.^ ..7.M.PXp v v h BXB.c.w.0.0.0.w.7.;.8.f.w.;.;.d.",
"h.h.a.:.' _ _ _ 9.7.7._ ^ Z Z Z ' ' a.a.:.:.:.:.J J ( ' ' ( H H > 3 ^ ^ ~ / F Z H ) h.AXj N v h 8.;. .| ) ) ) ) ( H H ) ) H H ,.",
"J J G S C C F ( ( G G G G I U ] G F J ' ' ( F J C Z F ( ( F C C > Z / F G I U U S J ) f.g c # & F A A F F H F ( / D C F G F F J ",
"S S S C j x G ( G G I I I I I I S g g F F g $ g g x C F ( D C C B D G I I I U U P I B Z * = - - % B B C C D D D D x x S G S S G ",
"z x c f p p h b b b n n P n n v j p p j j p + k p p h b b h h h f g h b n P P n n G i k f c # a + $ f f f f z z z p p a h h h h ",
"# # @ a @ d p s s v b b b b b h h p p h h p h N b s s s s a p p z h h s v N v d p j k j D ! m s p + p h a a d a d d d s l s s p ",
"# a c c c z M M D D M c & # & & @ f f p @ a z M M z z z z s s l N N N m m m c & - = = c M ! N v s h h z l l s d d l m m z z m l ",
"# @ a a @ @ a a a f & & = = ~ ` & c c @ # @ z z l d d l l d d s v n N s d @ - - = - = = z m P v s a a a s l l d d d m m m m s s "
};
