/* XPM */
static char *_c19bfc2c1ee428cd3d0cf5235dfdeb5qvS0aVkpklX12liJ[] = {
/* columns rows colors chars-per-pixel */
"64 64 256 2 ",
"   c #030201",
".  c #0B0301",
"X  c #0B0B05",
"o  c #040B0B",
"O  c #0C0B0C",
"+  c #050708",
"@  c #130201",
"#  c #1D0301",
"$  c #140B04",
"%  c #1B0C03",
"&  c #140C0B",
"*  c #1B0C0D",
"=  c #14040B",
"-  c #09120A",
";  c #13120D",
":  c #1C120C",
">  c #191406",
",  c #0B0D12",
"<  c #070B17",
"1  c #130C12",
"2  c #1A0D12",
"3  c #170A15",
"4  c #0D1314",
"5  c #0C141B",
"6  c #0C1819",
"7  c #131413",
"8  c #1C1313",
"9  c #1B1A14",
"0  c #13141B",
"q  c #1B141A",
"w  c #151B1B",
"e  c #1B1C1B",
"r  c #161A15",
"t  c #230300",
"y  c #240D01",
"u  c #270C08",
"i  c #360B02",
"p  c #2B1401",
"a  c #23130C",
"s  c #2C1709",
"d  c #351808",
"f  c #260D14",
"g  c #231413",
"h  c #2A1414",
"j  c #231A15",
"k  c #2A1C15",
"l  c #21131A",
"z  c #241C1B",
"x  c #2B1D1B",
"c  c #2B141C",
"v  c #331B14",
"b  c #361916",
"n  c #320C19",
"m  c #1E221C",
"M  c #1F200E",
"N  c #372607",
"B  c #24211C",
"V  c #2C221D",
"C  c #2A2517",
"Z  c #38261B",
"A  c #2E2809",
"S  c #0A1824",
"D  c #141B24",
"F  c #1B1C23",
"G  c #181927",
"H  c #081D37",
"J  c #1F1D35",
"K  c #231D23",
"L  c #261925",
"P  c #371A25",
"I  c #281E33",
"U  c #1B2324",
"Y  c #18232A",
"T  c #0D253D",
"R  c #1C2333",
"E  c #1B2934",
"W  c #1C2B3D",
"Q  c #15273A",
"!  c #113132",
"~  c #232425",
"^  c #2B2323",
"/  c #2B2925",
"(  c #24242B",
")  c #232B2C",
"_  c #2B2C2C",
"`  c #252A26",
"'  c #332422",
"]  c #342924",
"[  c #322C2A",
"{  c #3C2C2A",
"}  c #392726",
"|  c #2D332D",
" . c #2A352B",
".. c #33322E",
"X. c #3B372A",
"o. c #242B34",
"O. c #2B2C32",
"+. c #272938",
"@. c #342B35",
"#. c #2C3334",
"$. c #2D343B",
"%. c #283438",
"&. c #323434",
"*. c #33353A",
"=. c #343A3B",
"-. c #3A3C3C",
";. c #383836",
":. c #451B03",
">. c #49110E",
",. c #452A1B",
"<. c #4B3519",
"1. c #4E3012",
"2. c #442B24",
"3. c #4C2D24",
"4. c #4C2D2A",
"5. c #452929",
"6. c #532D2B",
"7. c #5A2D2B",
"8. c #552A26",
"9. c #4B3225",
"0. c #44332D",
"q. c #4C332C",
"w. c #4A3728",
"e. c #533226",
"r. c #53342A",
"t. c #5A332C",
"y. c #543A2C",
"u. c #5B3A2E",
"i. c #573624",
"p. c #592E32",
"a. c #443432",
"s. c #4C3533",
"d. c #4C3A34",
"f. c #4D3B3A",
"g. c #463936",
"h. c #533432",
"j. c #5B3433",
"k. c #543B34",
"l. c #5B3C33",
"z. c #533D3A",
"x. c #5A3C3A",
"c. c #5A3639",
"v. c #492B34",
"b. c #613C34",
"n. c #633838",
"m. c #613230",
"M. c #713C1A",
"N. c #39423A",
"B. c #544707",
"V. c #49433B",
"C. c #5B4234",
"Z. c #54423C",
"A. c #5C443B",
"S. c #594638",
"D. c #5B442A",
"F. c #624739",
"G. c #674D2D",
"H. c #766B39",
"J. c #091E41",
"K. c #0A2747",
"L. c #142B43",
"P. c #1C2C45",
"I. c #132C4A",
"U. c #152947",
"Y. c #1C324B",
"T. c #183249",
"R. c #193452",
"E. c #0E324F",
"W. c #272D43",
"Q. c #283548",
"!. c #343C43",
"~. c #3B3D43",
"^. c #363948",
"/. c #273955",
"(. c #353C53",
"). c #372D45",
"_. c #463C47",
"`. c #523B42",
"'. c #473E57",
"]. c #543E54",
"[. c #613C43",
"{. c #3C4243",
"}. c #384447",
"|. c #3B4558",
" X c #2A4457",
".X c #374461",
"XX c #3D5267",
"oX c #1B4052",
"OX c #434544",
"+X c #4A4B4A",
"@X c #46474A",
"#X c #594646",
"$X c #484759",
"%X c #554B5D",
"&X c #574857",
"*X c #4A5255",
"=X c #525559",
"-X c #51534E",
";X c #654746",
":X c #664C56",
">X c #695551",
",X c #72644B",
"<X c #4D4B63",
"1X c #4C4D6A",
"2X c #474765",
"3X c #544C64",
"4X c #594C64",
"5X c #544D6A",
"6X c #5A4D69",
"7X c #564762",
"8X c #4D5263",
"9X c #4A536B",
"0X c #545264",
"qX c #5B5265",
"wX c #55526B",
"eX c #5B536B",
"rX c #595A68",
"tX c #495475",
"yX c #545372",
"uX c #5B5573",
"iX c #575A77",
"pX c #514F71",
"aX c #655568",
"sX c #735B6A",
"dX c #655C75",
"fX c #644F62",
"gX c #5D6376",
"hX c #6A6779",
"jX c #786778",
"kX c #736B6E",
"lX c #8E5430",
"zX c #906D4E",
"xX c #AE7553",
"cX c #836B7A",
"vX c #84717A",
"bX c #C27B51",
"nX c #883C2C",
"mX c #B48C68",
"MX c #B4A876",
"NX c #AC8E66",
"BX c #DB9871",
"VX c #656A86",
"CX c #766B82",
"ZX c #797589",
"AX c #737693",
"SX c #526583",
"DX c #897585",
"FX c #8B7488",
"GX c #7E8190",
"HX c #BDAC8A",
"JX c #9F8D93",
"KX c #CBB28F",
"LX c #DCB89A",
"PX c #D8C395",
"IX c #DDC9A3",
"UX c #E5D1A6",
/* pixels */
"kXvXjXcXFXFXcXFXcXcXFXDX).W.^.(.Q.P.|.|.$.+.{.gX7 e + 9 ; 9 r 7 0 F F F , K @.kXDXkXvXDXsXJXvXFXcXDX].I '.dX$X+.+.@.@.@._.sXcXcX",
"jXDXsX&XfXjXcXFXJXDXjXFXhX+.W.|.W < |.hXgXo.o ~ _ / O / _ -.OXOXO.$.=.*.0 ( F @.3 @.sXvXvXjXsXsXFXFXjXaXCXZXCXhXhXCXjXhXjXDXDXvX",
"kXDXvXfXsXFXFXFXDXjXjXZXDXJ J |.R (.gX< 5 rX=X~ &._ r V.OX+XOX{.~.*.!.*.0 *.@.O.-.[ L l &X&XcXvXjXDXjXjXCXCXCXZXCXZXZXjXjXvXjXjX",
").&X%X&X&X:X:X].&XsXdX4XCX'.G Q.Q.< R D D ~.#.-X&._ e @X@X-._ _ =.O.*.#.0 OX+X~.O.-.L = L 3 _.fXfXfX7X%X4X4X4XwX<X0XeX4XqXfXfX%X",
"3X%X4X4X4XfXaXaX%XfX%X_.hXGXG E S E !.o., =XO.` &._ r -.;.#.#.{.#.#.~.=.w @XOXO.*.;.  L _.-.L = &X%XqX4X3X4X6X$X3XwX6X3X%X%X%X%X",
"eX%X7X6X7X%X7X&XaX4X%X0XrXhXR ^.|.}.$.=.4 *.| OX| | e -.&.#.$.=.=.&.=._ 4 -.-.&.*.-.K *.O.&.O._.O._.aXdX4XwXuX3XuXeX6X3X4X4X4X4X",
"5X<XyXuX4X6X7X).%X0XrXrX^.o.!.*X!.$.o.#.U 7 _ ../ | e =.*.*.#.) =.#.~ r O &.&.{.;.0 0 _ ;.OX&.O.L I _.qX3X4XeX3X5X<X$X%X3X4X4X4X",
"yX5XuX5X2XuXuX).$XrX*X$Xo.o =X}.#.=.=.( *.O OXB _ _ O ~ ) =.{.*.~ ` e e e -.) &.-.w {.*.=.#.#.*.~.G I $X4XwXeX3X5X2X2X<X5X5X5X4X",
"pXpXpX5X5X5X5X3X0X$X0XD *X#.U {.#.*.=._ ..X e [ & ; & B e e U + r 8 O B - 9 e -.7 U +X#.=.=.%.}.K O.~.< eXwX$XeX5X2X'.dXuXuX<XwX",
"yXyXyXyXyXwXwXwX0XgXD {.{.#._ w =.=.#.m &.z z ; ..] j z r e &._ V { ] B 8 / / ` ~ + =X#.{.) {.o ) ~.*.@.G 3X<XuXwX5XyXVXuXyX1XyX",
"pX2X2X1X1X2X$X8X0X*Xo =X*.=.=.w 4 *.OX` e ; x ' g j 8 x 8 & z 8 g x ' j V [ ../ _ ; 7 -XU {.w w &.-.O.@X+ _.eX3X5XyXdXuXuX2XyXyX",
"iX1X1XyXwX<X<XrX0XD {.~._ &.&.&.4 F ) e B ^ j x k ' { Z.f.{ { g z.2.w.0.f.V V B ^ / ` + N.w 6 #.-.| #.~.O.+.eX'.3X5XdX1XyX2XyXpX",
"yX5X5XwXwX<X$X8X$X+ rX&._ &._ ;.F w ~ ~ ~ ^ & V s.s.0.Z.z.s.d.b #Xq.k.s.A.} } ' & +X*.+ ~ w 4 #.| ` #.&.@X0 $X3X3X5XuX2XyX2XyX1X",
"1X<X<X<X<X$X$X@XY 4 _ *.*.-.&._ 0 0 O._ z V * f.z.s.5.k.k.q.q.v 2.4.h.2.s.z.Z.a.g [ ;.+XOX7 e N.` ;.| =.#., ( dXwX<X<X2XyXpXpX1X",
"<XwXeX3X<X<X$X^., O., _ ;.*.;._ U 5 0 e [ -XV 0.k.h.q.F.x.r.r.b r.l.6.3.Z s.0.{ z a.  jX+XOX4 =X .N.| | w D G $X%X'.(.2X2X2X|..X",
"Q.|.|.(.(.(.).K q @X~ 0 O.~ / [ w F O.K j #Xx s.y y # p y t d t s y # p # p u } g -XV $ kXN.) {.N.` &.m w _ F G (.^.W.2X(.(.W.(.",
" XW R. X/./.).q :X_.@X, Y ) 9 B z L L ' d.;Xx z.% LXG.y KX1.@ ,X0.@ H.N $ H.Z } P s.w.A ,XX.^.!.{.| 7 ` | ;.~.< /. XU..X/./.W Q.",
"! H E.E.K./.I L f.{ OX!.}.o.+ j x c L { S.F.h l.y IX,Xy MXB.p HX{   H.B.. H.y P P #Xw.B.> ,X=.^.!.` | / -._ *.%.H P.H K.H L.Q W.",
"E W E.E.H U.5 [ g.;.#.$.!.Y & } x h c a.S.S.u x.y UXzXp PXG.p KXkX$ MX1.% H.d 5.c :X9.<.p X.kX^.}.{.OX_ &.OXw +.S Q./.T.H Y.T H ",
"R W K.K.K. XF -XC X.#.!.^.*.l h v b } s.C.C.u l.p UXzXy UXzXy KXkXk HXzXp MXy P P z.w.<.D.$ jX%X%.*X{.-...JXg._.S R Q.U.T R.Y.T.",
"I J H I.I.Q.o C V.X.| %.$.@.L c h 2.h.4.i.C.v l.d UX,X# IXzXp IXkX. KXN p MX,.h.P 5.F.i.<.w.c hX$.*X}.;.} JXg.{ ( 0 W.P.T L.H H ",
"CXCXVXAXVX|.] N NXZ N.` ) F L v.b r.x.4.<.D.b l.p IX,Xy PXG.% LX2.@ MXB.% PXt b n [.l.<.1.C.h _.8X!.+Xg.2.,.3.y vX@.^.R H P..XSX",
"jXjXAXAXCX[ C.<.NXp ,XV.=.F l h 3.t.j.3.i.D.v l.y LXF.p KX1.@ HX2.y KXp y KXd 5.f :Xr.1.u.,.;Xc rXo.+XZ.y.i zX1.,.# aXCXAXVXVXAX",
"DXZXAXCXaX# G.M.mXi zX] z K ' h l.t.6.3.i.D.d A.d KXZ @ HX1.p KX@ y HXd # KXd 5.P h.l.u.i.l.;Xc rXO.[ S.:.i mX:.8.y >XaXeXiXVXAX",
"aX$X$XdXDX# nXxXmXBX:.# k / ^ % y.e.6.3.<.D.b k.p N p s d p s s u d p p p p d ,.u ;Xr.3.e.y.;Xa ;.B V d :.zXmX1.zXi >X:X&XaXwX<X",
"@XaXwX'.sX>.nXlXBXbX:.i.. B m V.w.e.h.r.<.i.u h.N N v v N N Z v 2.9.,.1.1.<.,.q.b c.2.l.C.r.>XZ.V & @ d i KXLXzX1.# ;X>X&X&X%XaX",
"+XrXrX%X:Xi nXBXBXmXNX@ Z : > V.9.3.h.k.i.y.h x.<.<.Z } v Z w.s k.y.<.<.D.D.r.q.P h.5.s.q.Z Z.f.j V Z # zXxXBXxXzXi A.#X&XfX4X7X",
"=X@X$XeXfXt >.BX>.BXt w.. X.9 a.d.5.4.s.9.w.h #XC.y.s.s.Z w.#Xv l.C.i.i.G.C.y.s.f f.s.{ } f.>Xa.; : s i.:.KX:.LXd # >XaX&X&X7X4X",
"&X@X|.2XeXc t :.t t % ] 9 _ j #Xf.} P ' Z w.c #Xy.w.s.f.Z w.A.a r.l.r.r.C.y.2.0.h f.@.2 8 { w.> +   % A.# @ @ # . @ =X%X$X3XeX7X",
"%X3X1X.XpXG @ @ d @ > ` &., c #X} x l g C d.' :Xy.y.s.`.w.y.A.v r.l.l.k.C.k.0.g.' L q = . $ > X   + z V.Z % k . ^ ( 0X$X2XuXdX$X",
"aX4XiXtXtX< #.; X    .+ G O.= :Xg 8 q & a 0.L `.d.C.a.`.Z.y.k.} q.k.h.q.z.d.0.g.8 = 1 F F 9 M  .o @X  7 B   7   + S yXiXiX2X5X1X",
"7X3XyXtXtXS *Xo o o  .}.D = `.v.* z K = . j   l % a @ * a % % @ t u # # a * $ & 8 q ( _ U ;   - o , _ @X&.m   , ^.R (.2XSXpXyX1X",
"wXwX8X2XrX< =X4   - N.` e z h #X= ^ B X X X 8 & % # a g % : B 9 : g g : g : & 8 9 7 7 &.-.- X r o &.- +XV.+ o 4 $.D (.|.pXpXiXyX",
"9X9X8X8XrX, =X4   - &.` 9 x h #X* & X   X ; $ 8 g a h h : 9 M > : k g g l 8 : 9 & ; + 9 B X ; m ; | m -X-X4 + 4 $.D $X<XyX1XyX1X",
"9X9X8X$X0X5 =X4 + -  .m e V h #X' @ . X x [ g a.d.4.q.0.0.a.X.V a.z.d.s.d.a.0.g.g V $ . X X 9 j   X ; ;.@X+   , *.G $X8XpX1XpX1X",
"XX9X|.|.|.5 @X4 o - ` r 9 V h `.a.a * 8 V f.g d.x.h.j.j.h.z.s.v h.x.x.h.x.k.h.z.b d.v @ @ : V k   X m B -.7 - w $.D |.|.|.|.tXtX",
" X X X^.^.5 !., 4 o m 4 7 x c z.s.{ 0.' x #Xh 4.j.6.8.8.7.c.q.v 4.j.7.6.7.6.4.h.v x.2.u h 2.l.5.& V ` X ` 4 7 5 %.5 Q.W.Q.Q..X.X",
"T.Q./.Q.W.S !.o 6 4 U 4 7 x f f.f 5.5.' a z.b h.c.p.p.7.p.n.j.b t.n.j.7.j.t.t.b.d l.r.,.2.y.F.w.@ ^ ; + r o w 4 ) < +.W P.Q P.L.",
"T L.P.P.W G }.D U w #.e e L 2 5.@ h a g . x v 4.j.7.8.8.8.j.7.i 7.m.7.8.7.7.7.b.b b.j.8.6.r.l.q.& &.; _ &.w ~ U #.< E Q W Q P.H ",
"L.L.Q Q G Y *X#.U U *.) K L = } @ 0.x } @ k v 4.c.m.m.8.8.n.j.d 7.m.t.8.t.t.t.b.b u.t.r.t.e.t.h.8 -.O +X@Xw U U {.5 E R W P.Q.P.",
"L.T Q.W +.S 0X!.6 U ) O.7 ^ f f x V a.a.] a y q.c.p.7.7.6.j.4.d t.i.t.t.t.e.t.u.d F.t.b.r.e.e.F.x *.r +X+XOXw U =.< %.E W P.Q H ",
"/.T Q Q W.< $X{.U ) ) ~ 7 ^ f c ' x ] V k : % 9.c.j.7.6.6.h.9.d r.e.e.t.r.e.r.u.d F.e.l.e.9.e.A.& _ O &.&.-.e F !.< o.G R W W.Q.",
"/.P.Q.$XgXG ~.~.6 U w 4 1 ^ h a.k $ > > a a a d.x.r.7.6.6.k.9.s y.e.r.y.r.e.r.u.p l.9.u.e.9.9.A.B ~.4 ~ ~ -._ #.#.< !.^.$X9XiXhX",
"VXgXVXZXZX0 0 , o U w 4 7 ^ g `.' : > : V V k k.l.r.7.6.6.k.0.s r.e.r.y.r.e.r.u.p l.3.u.e.e.e.A.X ~   r , e + 4 F 5 rXhXZXAXAXAX",
"AXAXZXhXdX= F e 7 #.#.` e x * z.#X5.{ { d.0.v 4.l.t.t.r.r.k.w.s r.r.r.y.r.r.r.u.d l.3.l.r.r.r.A.e *.F =X+X=.7 F F 0 gXhXCXCXdXuX",
"5XuXdX%X%XL +XOXw | ;...e x * f.;Xq.0.d.Z.w.v 4.n.j.t.6.6.k.w.d r.e.r.u.t.r.r.u.d b.8.l.t.t.r.A.z #.0 *XOX&.0 &.O.F qXqXqX4X3X6X",
"5X3XaXqX%XK &X-.B ` | | 9 x g f.x.5.5.q.k.q.b j.n.t.t.7.r.y.9.d r.r.r.l.t.r.r.t.d b.8.t.t.t.8.A.z #.4 =.&.O.K _.@.F %X%X7X4X6XdX",
"eX'.7X4X%XL =X_.-.#.&...; B k 0.F.6.4.3.r.3.b b.n.t.t.7.e.u.9.d e.e.t.u.t.t.t.t.d b.3.t.r.r.3.z.7 =.F OX-.~.( =.O.0 3X3XeX4X7X7X",
"4X4X4X7XqXG $X@X!.*._ _ 9 x * 0.S.w.v y.r.Z b b.b.t.8.8.t.u.,.d i.i.i.i.i.i.u.u.d r.3.2.Z y.q.Z.. &.7 -X{.$.$.$.+.G eXwX5X6X3X6X",
"6X4XeX7X3X< o.G +.O.( _ z ^ g d.Z.Z A ,.w.C.Z F.r.e.3.r.l.l.,.d e.i.i.i.i.i.r.r.y y.2.a # { k %   ; & | *.#.+.!.Y S 8X3X3X5X6X6X",
"7X4XeX7X0X< +.Y F F e z * z * 0.] $ > % k Z.k z.s.s.s.z.;X#X4.v r.r.u.l.l.l.k.d.Z V $ & . 8 & B     X 7 ~ F , D G 5 <X<X3X5X6X6X",
"4X4X4X3XqXG $X@X#.&.O.[ z ' g g.V 9 e 9 z V.' f.s.f.f.z.#Xz.a.' s.s.h.k.z.f.f.f.^ 8   e 7 , O &.9 / &.OX+X{.O.*.+.G 0X3X4X5X4X5X",
"eX6X4X$X3XD @X@X~.{.-.&.z } j g.+ e , O   & = 8 1 2 l 2 1 2 1 & * * * * * * 2 2   F ~ &.( F o , + ..9 +X-.;.*.*.$.G 0X0X0XwX4X3X",
"4X4X4X3X0X0 ~.=.#.*.[ ^ : x a ..O O.w e + = & 8 1 q l 8 2 q z z g g 8 8 8 8 q q O e F =.O.w o e X g.; OX..&.-.=.O.D 0X<X0XwX5X3X",
"7X3XwX3XrXD ~.;.*.;.[ ^ 8 ' x g.. ; + O . j & z * 2 8 2 g j l * g g g g g g 8 8 K 1   ( K O + -.7 / ; _ _ &.O.O.O.D %X%X3XwXwX5X",
"5X4XwX3X0X5 ;.#.| &./ z & V g a.:   $ @ g #Xx f.s.s.s.g.f.f.a.' s.s.d.f.f.d.g.a.g g . $ . * & B . + ; r &.V._ _ &.F =X%X0XwXwX9X",
"wX1X$X0XrX5 , U e r e ; & ^ @ #XZ a a y a l.v q.h.k.k.h.l.l.0.v 3.r.q.r.A.S.w.9.k 2.u @ # a ] >   + r ; 7 e r r 0 F *XrX9X9X1XyX",
"1XyX9X<X$X5 U @X-.| ..B 8 ^ & OXs.Z 2.Z ,.F.b r.r.r.q.r.C.C.2.d 9.r.r.r.A.C.w.w.s 9.2.5.2.2.d.] X e U &.#.;.;.=.4 0 !.|.(.|.(.|.",
"/.|.|.Q.%.< o.+X@XN.-._ e _ q V.Z.d.S.k.9.A.b 3.r.9.3.q.S.S.2.s 9.r.q.w.C.l.9.q.s 2.k.A.A.d.Z.0.7 ) w @X-.*.=.-.U D !.(.Q./././.",
"/./.Q.W W.Y }.}.-.&.&._ e _ e -.g.Z.Z.Z.0.z.v 5.s.0.0.s.Z.Z.a.] 0.d.s.s.z.f.a.s.' { g.Z.Z.a.a.g.F =.6 =X{.=.*.$.o.G %.Q.Q./././.",
"I.Y.P.T W E |.}.#.#.| #.0 U 0 ( O r 7 q O 8   8 1 & 1 1 1 , O O O 1 1 O q 1 = 1 1 O 1 q 0 1 O 4 G $.5 *X=.%.$.%.) S E Q T Y.I.R.",
"K.K.I.T H S |.}.{.*.#.*.0 F D D G +.R E G +.J W.o.R R R R G Y R R +.R R +.o.R o.o.Y o.+.$.Q.R E S E 5 }.%.%.$.%.o.S W W T I.K.K.",
"E.K.R.Y.W S }.$.%.o.) %.6 ( +.+.Q Q.T P.L.Y.P./.Q.P.P.Y.Y.L.L.I.Y./.Q.P.Q.Y.Y.Q.Y.L./.Y./. XI.Q Q E E %.%.$.%.%.o.Y W.Y.T.R.E.E.",
"E.J.K.T.T.S E + w w 4 ) 5 %.$X|.T R.T I.K.I.K.Y.R.I.K.I.I.K.K.K.I.R.I.K.I.I.K.I.R.I./.I.I./.K.T W Y E S S Y 6 6 Y S W T.I.E.K.K."
};
