/* XPM */
static char *f87441088ac54125c3f29264f5a49d617Lcw60QcbHB8HgUP[] = {
/* columns rows colors chars-per-pixel */
"64 64 256 2 ",
"   c #3C2B36",
".  c #3B3339",
"X  c #342A2A",
"o  c #2D2129",
"O  c #4D2D13",
"+  c #703016",
"@  c #462928",
"#  c #493639",
"$  c #52372E",
"%  c #733D2B",
"&  c #59463A",
"*  c #7B4628",
"=  c #684839",
"-  c #774736",
";  c #6B4A2E",
":  c #71471F",
">  c #393748",
",  c #293956",
"<  c #373955",
"1  c #2F3049",
"2  c #122550",
"3  c #463745",
"4  c #583B47",
"5  c #493B56",
"6  c #563C55",
"7  c #412844",
"8  c #633E48",
"9  c #552F62",
"0  c #334354",
"q  c #384E6E",
"w  c #49454B",
"e  c #58484C",
"r  c #4A4859",
"t  c #574759",
"y  c #53535C",
"u  c #694746",
"i  c #754B46",
"p  c #775445",
"a  c #664A58",
"s  c #754C56",
"d  c #6A555A",
"f  c #785659",
"g  c #6A5346",
"h  c #494965",
"j  c #564B66",
"k  c #475467",
"l  c #565468",
"z  c #485976",
"x  c #595A76",
"c  c #4F4A75",
"v  c #664A66",
"b  c #675466",
"n  c #785A69",
"m  c #765976",
"M  c #6C5373",
"N  c #796978",
"B  c #75646C",
"V  c #6D6565",
"C  c #8E3E21",
"Z  c #844A35",
"A  c #914E2D",
"S  c #A65A36",
"D  c #B56A3C",
"F  c #B16B36",
"G  c #934F17",
"H  c #C7763A",
"J  c #D67C3D",
"K  c #8E5B54",
"L  c #A55C4E",
"P  c #89655A",
"I  c #976759",
"U  c #97694E",
"Y  c #A56748",
"T  c #B76D45",
"R  c #BA7649",
"E  c #A46859",
"W  c #BB7858",
"Q  c #AE7251",
"!  c #895C67",
"~  c #865D76",
"^  c #945D6C",
"/  c #8A6767",
"(  c #966868",
")  c #997468",
"_  c #886678",
"`  c #966977",
"'  c #89747A",
"]  c #987475",
"[  c #8B726E",
"{  c #A66D68",
"}  c #A57667",
"|  c #B97B67",
" . c #A67976",
".. c #A96D76",
"X. c #CB7C4C",
"o. c #C67948",
"O. c #D57C4B",
"+. c #C57C53",
"@. c #CD7C54",
"#. c #C47C5B",
"$. c #CC7D5C",
"%. c #C67555",
"&. c #D27E54",
"*. c #D37E5C",
"=. c #DA7C57",
"-. c #CD6D5D",
";. c #CB7D63",
":. c #C67B67",
">. c #D37D63",
",. c #D57C69",
"<. c #C87C75",
"1. c #E47B4E",
"2. c #D2853B",
"3. c #BB8459",
"4. c #BA834B",
"5. c #BA8669",
"6. c #B88876",
"7. c #AE8A75",
"8. c #9E8276",
"9. c #CC834C",
"0. c #C88549",
"q. c #D3834D",
"w. c #D98549",
"e. c #C58454",
"r. c #CC8453",
"t. c #CD8A54",
"y. c #C4835B",
"u. c #CC835C",
"i. c #CC8B5C",
"p. c #C78957",
"a. c #D38354",
"s. c #D38A54",
"d. c #D3825B",
"f. c #D38B5C",
"g. c #DB8758",
"h. c #D49457",
"j. c #E48858",
"k. c #E79759",
"l. c #F69C59",
"z. c #E5924A",
"x. c #ECA659",
"c. c #F4A45D",
"v. c #FEA55C",
"b. c #FEAB5C",
"n. c #F8A956",
"m. c #FDB25A",
"M. c #F1A44C",
"N. c #C58363",
"B. c #CB8363",
"V. c #C9886A",
"C. c #D38363",
"Z. c #D58A64",
"A. c #D4846B",
"S. c #D98966",
"D. c #CC9168",
"F. c #DA9566",
"G. c #C68A74",
"H. c #D68874",
"J. c #C89477",
"K. c #D89978",
"L. c #E89967",
"P. c #ED996F",
"I. c #D8A579",
"U. c #D6AD74",
"Y. c #E9A768",
"T. c #F3A463",
"R. c #FDA564",
"E. c #F4AC64",
"W. c #FEAB63",
"Q. c #FDAC6C",
"!. c #F7A76B",
"~. c #FDB26C",
"^. c #FCB567",
"/. c #EBAA74",
"(. c #ECAC7B",
"). c #E6A676",
"_. c #F3AC74",
"`. c #FDAB73",
"'. c #F3AC7B",
"]. c #FBA777",
"[. c #E8B278",
"{. c #FEB374",
"}. c #FEB47B",
"|. c #FEBB7B",
" X c #F7B677",
".X c #EEB068",
"XX c #DAA35C",
"oX c #FDC276",
"OX c #DBC27F",
"+X c #B68036",
"@X c #776A86",
"#X c #787288",
"$X c #67628E",
"%X c #896B86",
"&X c #966B84",
"*X c #8A748A",
"=X c #987487",
"-X c #937693",
";X c #A5798C",
":X c #825D88",
">X c #988592",
",X c #B28D89",
"<X c #A590A3",
"1X c #CE9685",
"2X c #D9A888",
"3X c #D7AA95",
"4X c #DAB395",
"5X c #D4AF88",
"6X c #E7A987",
"7X c #F6AB85",
"8X c #E9B688",
"9X c #F9B888",
"0X c #E6AB95",
"qX c #E8B796",
"wX c #F8BA94",
"eX c #F4AC91",
"rX c #DAAAA3",
"tX c #D6B3AA",
"yX c #E9B9A6",
"uX c #EAB6A7",
"iX c #E08E82",
"pX c #FCC688",
"aX c #FECB94",
"sX c #FECC9B",
"dX c #FBC598",
"fX c #FED39C",
"gX c #FFDA9D",
"hX c #FCD596",
"jX c #EEC991",
"kX c #EDC7A4",
"lX c #FDCEA3",
"zX c #F8CAA8",
"xX c #FED4A4",
"cX c #FEDAA4",
"vX c #FED4AB",
"bX c #FEDAAB",
"nX c #F5D5A6",
"mX c #EAC8B5",
"MX c #F8CBB5",
"NX c #FDD3B3",
"BX c #FEDCB3",
"VX c #FDD7BA",
"CX c #EED3AB",
"ZX c #FFE4AC",
"AX c #FFE7A8",
"SX c #FFE3B4",
"DX c #FFE5BA",
"FX c #FFEABB",
"GX c #FFEBB6",
"HX c #FFF3B7",
"JX c #DEC394",
"KX c #FBD7C6",
"LX c #FAD6CE",
"PX c #FFE7C6",
"IX c #FFF3C8",
"UX c #FFECD2",
/* pixels */
"F  XcXU.8X5X8XU.U.pXxXdX6./ d t   f P 7.5.U 4XVXCXCXnXjXOXU.5XqX).7X7X(.7X(.).'.'.'.'.(.(.(.(./.[.[.[.[.[.[.[.[.8X8X5X8X8XZX XS ",
"_.cXHXxXSXnXnXcXfXfXxXBXNX] B # t n 8.1XbXFXUXNXUXIXHXAXAXAXDXFXDXFXDXSXDXSXBXDXbXcXxXxXfXsXsXaXgXgXcXAXAXAXbXbXxXlXnXBXlXFXgXY.",
" XsXbXbXIXDXSXFXHXZXxXBXKX/ ' b 6 _ KXVXbXlXVXNXNXCXhXhXAXZXBXBXFXPXDXSXFXDXBXSXFXGXGXSXZXbXbXcXZXAXAXAXAXAXZXSXFXDXPXIXbXbXfXpX",
"(.dXxXbXIXFXSXFXZXcXsXvXMX8.' N b n LXUXDXdXzXNXNXnXfXhXhXaXwXqXqXJXJXJXvXbXbXDXnXnXnXnXnXnXnXnXjXjX8X[.[.[.8X8XBXNXPXIXvXsXdX8X",
"8XSXBXvXSXDXnXnXaXaXsXBXKXmXB a *Xn KXVXFXvXNXNXNXvXcXgXgXfXvXvXvXBXnXkXvXnXkXnXnXnXnXnXnXnXnXnXcXfXaXjXpX9XdXdXlXnXVXVXnXBXZXjX",
"8XSXBXkXCXPXBXbXcXcXfXdXyXKX/ B _ ' UXkXxXfXNXvXNXvXfXaXpXaXxXVXdXxXlXvXDXDXSXFXFXFXFXFXFXFXFXFXfXcXgXgXfXfXfXxXFXDXPXCXzXSXSX[.",
"6XBXbXvXBXIXDXZXgXgXpX(.6XmX] ] _ ' mXqXHXZXFXxXDXSXfXpX~.!.].7XFXPXSXvXlX9X(.(.(././././././.).AXAXAXAXAXAXZXZXDXSXIXnXzXxXcXU.",
"8XbXxXbXvXSX8X[. X|.L./.BXMX) u [ ] MXjXHX/.(.'.(._..XE.E.E.`.].P.`.`.`.`.`.!.`.`.`.`.Q.Q.Q.`.`.[.[..X.XY.Y./.(.[.8XbXxXcXxXZX8X",
"6XDXsXbXsXSX[. X~.c.Q.!.lXzX) / d / PX8XAX.X|.!.}.~.E.n.n.b.Q.`.Q.W.R.W.R.W.W.W.v.W.W.W.W.W.W.W..X.XE.E.E.W.Q._./.).SXcXaXcXAX[.",
").SXbXxXbXGX Xk.W.W.l.{.7XNXK / @ P 5XAXHX.Xk.`.T.c.n.n.m.b.W.R.v.b.b.W.W.b.b.n.n.b.^.b.M.M.n.W.E.E.E.b.v.v.v.T._.9XHXcXpXfXAX).",
"(.cXcXsXsXfX|.E.v.b.v.{.'.VXK ) @ 8.4XaXAXx.{.~.Q.W.m.m.m.n.l.l.W.b.n.n.n.n.b.m.^.m.M.M.m.m.m.M.W.E.W.W.W.W.W.~.T./.fXfXaXgXAX X",
"[.fXfXsX8X[.Y.|.v.v.W.!.wXVXI / $ ] kXjX|.k.{.T.R.b.n.n.n.b.Q.{.W.m.n.n.n.n.m.m.M.n.m.n.M.M.n.^.T.T.c.v.v.v.v.W.{.Y./.aXsXsXfX[.",
"[.xXxXbX8X9XY.c.W.v.R.`.lXNX) / d P zXIXY.~.j.T.W.W.b.n.n.v.R.`.T.E.^.~.~.^.E.x.^.x.z.z.n.^.W.k.{.{.Q.W.v.v.v.R.`.'.(.sXsXxXxX[.",
"8XvXBXvXxXZXaXT.W.{.k.pXvXmX/ n %X/ PXPXL.}.k.j.R.W.~.^.W.W.R.].`.!.T.T.T.T.!.~.Q.|.oX~.E.E.~.|._.!.R.R.R.W.Q.{.L.sXsXvXsXbXDX8X",
"dXqXSXzXDXdXaX!.l.Q.q.9XNX,X[ b %X` mX5.r.g.j.o.O.j.l.v.v.R.].7X].L.j.O.O.j.P.].`.`.!.!.].`.Q.L.9.9.q.w.w.z.k.L./.xXdXDXvXvXvX5X",
"kXJ.PXVXUXQ D.p.t.F.W J.VXP ' b _ `  .| V.C.%.S.j.j.k.g.r.@.&.d.$.$.$.$.*.*.d.d.@.d.S.d.@.&.d.C.B.N.u.@.@.a.d.Z.y.D.W VXUXPXPXNX",
") ( 7.6.5.5.5.G.| 1XI K / / =X@ ` ` ( ..,X{ L A.d.&.V.U } J.B.B.} K 7.} 6.G.| Y G.| E U E E } 1X| { { I  .{ 6.G.6.6.} 5.6.6.KX} ",
"` ! ( ] ) } ( K ( ^ ^ ` ] ] / a _ _ ` ` ;X_ ! { L L I [ *X' P p 4 a a 4 [ / K { I ) ( ( ] ] [ [ ` ( ( ^ ` ^ ` ( /  .} ) ( / ] s ",
"m :X_ _ / / ` ` ` ` =X;X_ n _ =Xt t j t x h j a s u b x q z 5 t m 5 v M v a _ 8 ` =X_ n m %X%X%X` ( ` &X` &X` ` ] s ` ` s ;X_ v ",
"9 @X%X-X=X` ` ` ` ` _ _ _ ` ] / d r b r l h x a a 4 x q 2 q 1 j @X*Xv v _ ~ ~ s s _ &X&X-X*X%X_ ` ` ( ` ~ ` ~ ` ` =X` _ =X;X6 v ",
"$X:Xv v ~ _ ` ! ` ` ` ( K f ( / g = p & e e d u K u j z q 2 1 t 4 / 8 8 K (  .( % = u u u u s ] P I /  .^ ` ` =X` / _ ` 4 v :Xm ",
"m -Xv 8 s f ]  .P = tXuXyXzX7.kX2X2X6X4X4XtX4X4XJ.| 4 @X#X2 t u ( 5.2XqXG.6XzXK.6X0XyXyX2XI p U qXqX3X1X .P s f P  .u u s s %X%X",
"` LXLXKXVXyXzXzXNXNXZ 2X8XY sX4._.{.j.Y.).wX).9X}.(.I n >Xo s I W '.9X9X}.!.H k.j.L./.'.9X(.8XlXsXsXvXvXNXzXVXPXNXkXkXKXMXmXKX/ ",
"6.PXVXVXSXsXbXvXBXNXFXvXdXfXaXpXaXpXJ w.s._.s.Q.R.!.qX= N # = 5.].w.k.R.w.z.H O.J w.w.q.a.r.X.s.0.0.i.W D.D.wXxXbXsXcXfXxXxXVX5.",
"3.IX[.[.hXAXhXXXp.e.y.u.r.9.0.q.w.w.w.q.u.u.t.q.k.L.J.& w V = G.].j.O.O.=.j.1.O.O.=.g.g.&.@.@.d.r.t.t.t.u.r.e.e.h.|.hXhX[.[.[.4.",
"0.cXXXY. XY.XXD r.r.$.u.d.&.q.a.d.=.&.d.B.N.p.r.H s.I.& . y = 2Xu.=.g.g.O.o.X.=.=.g.d.d.C.C.C.C.a.a.d.d.u.u.r.9.o.x.oX^. X.XpXt.",
"s. XY.pXY._.cXs.u.$.;.A.A.>.*.*.>.>.*.B.V.N.y.r.H F.4Xg . w = qXB.@.@.d.Z.d.$.$.u.#.#.#.B.V.B.$.C.>.>.>.>.>.*.r.X.L.~.x.|.E.pX0.",
"o.AX{.Y.{.|.aXZ.;.;.,.H.H.,.>.>.>.>.>.C.V.N.y.r.g.L.qXg w y = 3XD.y.W #.B.Z.B.N.y.y.#.y.N.N.N.y.C.,.,.,.,.,.>.*.g.}.Q.T.{.!.pXX.",
"w.aX}.!.Y._.xXR ;.;.,.H.A.>.*.*.>.*.*.d.B.B.u.q.w.j.6X= e d p 0X3.e.p.e.R T R i.p.p.i.p.e.e.p.i.C.>.,.,.,.A.C.*.&.aX!.{.Q.}.9Xg.",
"H aXL.j.aX}.9X).B.;.;.A.C.*.&.=.d.d.&.*.u.u.t.q.J j.eX= e e i 0XN.p.i.Z.i.e.e.e.r.i.f.s.r.0.9.a.f.$.$.;.A.A.C.*.X.fXT.|.T.`.}.g.",
"g.}.!.Q.~.Y.aXR u.y.u.u.t.9.9.q.d.d.@.+.y.y.u.a.w.j.uXu v t s 0XK.Z.@.Z.L.L.S.@.&.&.&.&.O.O.O.O.r.9.+.e.u.f.t.9.9.gXc.~.R.!.}.q.",
"q.9X|..XY./.AXR p.p.e.t.r.9.9.q.t.r.+.+.W 3.y.u.f.u.3Xu b v s rXH.C.@.@.@.@.d.S.d.*.@.&.g.g.g.&.9.0.o.o.r.u.r.X.X.hXc.c.{.W.pXw.",
"t.pX XF./.9XSXe.e.p.p.f.a.9.q.s.a.s.s.F.R 3.e.3.3.J.3Xi [ g u uXG.B.+.Z.X.a.+.s.Z.u.y.u.u.@.*.&.s.L.D o.S.$.S.&.q.aXQ.R.l.Q.gXJ ",
"R aXpX'.9X(.SXD.D.p.+.+.a.a.O.o.@.@.f.u.#.W V.G.G.2X4X= P p g tX2XD.B.u.f.a.a.f.y.N.B.V.B.u.d.Z.f.(.C.A.:.Q A.C.@.'.L.}.}.!.|.o.",
"s._./.xXsX+.7XK.dXdX9X].].!.L.g.A.A.H.W V.Q | | 6.rXuXi i $ g rX2XN.W T d.X.d.+.i.B.N.N.$.$.%.%.W J.5.G.{ E G.| G.K.).dXsXwX7XD.",
"B.).N.Y Y Y 5.| W G.K.H.B.B.B.:.<.<.<.E { K K ( P  .,Xu u u f tX .I I Y | N.V.N.G.| } | G.1XH.| I I P ( ! /  .P ,X} U K U 6.1X6.",
"/  .,X .] ] f [ f ] ;X] ( ( ] ( ..;X....` ` ^ =X` n n 4 d d e N %X&X_ ` ` ..( ( ` ` ` ` ` ` ^ K ] [ _ ' _ %X=Xn _ f / / ] ,X] / ",
"b 4 6 a 6     <X>X>X*X_ _ %X' _ _ =X~ &X~ &X_ *X%Xb j t l r > w 1 5 6 m n =X%X%X7 j @X%X%X%X-X=XB N #X#X@X@X*X@XN w 3 3 w t t j ",
"o v 6 a a a t M b t 6 6 t b b v v j j b j j j j 0 0 k k k k k z q z k k r r w > 1 r k q 1 1 1   > r l j c c c x l r r l l h r 1 ",
"3 N 3 N -XN M 5 j j l b l t t j j r l j l h x h k k z z q z z q q q z 0 k k l k , 0 , 2 , k l k r l l h x x h j l #X#X#X@X#X#X< ",
"l j l @Xh x #X#Xh h l l l l l l l y l l y y k k x z k q , , , , q q k k k 0 > 1 2 0 0 q q k k k l t t t j j j j t *XN N > @X> 5 ",
"N b ' ' ' >X3 e       . . . .   # #   X . . . > > 1 < h h < 1 < , < < > 3 w > o < , , 0 z k h 1   # e d d a 4 # # # ' # B 3 t m ",
"6XzXqXA Z K.K.wXwX8X6X2X6X0XqXqX3X1X,X,X,X,X,X,X` _ _ -X%Xv 6 v @X%X%Xm _ &X_ b 5 j h h c c h v $ = = i i i = = p = ) p 7.[ f ] ",
"t.D s.fX_.`.aXL.!.!.`.9X9X_.F.u.V.| Q E E E E I { ( ( ..` ^ ! ^ ` ` ..( ^ ( ` ( 8 n 5 v 7 *X*XtXuXqX0X0X0X0XqXqXI.8X8X0X4XNX} 6.",
"D.fXr.r.h.S F aXaX}.k.X.o.r.f.F.u.;.;.;.;.:.:.A.:.:.<.<.<.1X1X1X<.:.:.B.B.N.J.2X4XtXP g @ [ P 3X6X).7X7X7X7X7X(.9XaXZXpXdXwXW N.",
"S p.).)./.cX}.q.g.a.q.a.a.r.+.o.@.*.d.C.d.d.C.Z.$.A.A.$.$.C.B.W Z.u.a.g.a.X.f.6X2XqX1X; $ P } qX7X`.}.}.`.].!.!.|.E.E.E. XY.t.u.",
"Y I.wX9XY.Y.9.g.X.X.X.X.@.d.Z.Z.d.d.&.&.@.@.X.X.X.X.r.9.s.f.s.r.f.r.O.q.9.o.+.i.J.zXmX; $ p ) 0X'.R.k.w.O.O.w.w.{.b.z.^.W.|.{.g.",
"O qX(.'./.g.f.o.a.a.d.*.$.$.;.B.C.u.+.@.a.g.a.q.g.9.o.9.q.9.9.a.a.a.&.O.a.s.t.e.y.dX4X= @ ) ) 2XP.l.j.O.O.O.w.2.n.W.^.b.c.T.aX9.",
"O 3X9X{.`.9XH.%.#.F.d.$.iXH.| 5.H.C.d.S.d.X.X.a.O.q.q.a.a.a.d.d.@.S.a.X.r.f.a.9.q.).4Xp X V U wX7X=.S.T d.f.o.h.pX^.x.W.{.!.pXt.",
"$ 1X/.k.R.j.%.A.B.Z.d.;.W % - J.V.:.%.%.*.S.g.a.O.&.&.&.*.*.*.>.C.#.S.G u.D f.O.w.'.3Xg 3 d U 6X].O.S.%.d.@.o.9.oX|.~.c.T.{.fX9.",
"O 5X+XoXl.pXD Z.p.0.X.F.A.A * 5.| H.H.;.%.@.@.o.&.&.a.d.d.>.C.;.H.:.H.C :.L A.$.g.7X3Xa b n { 6X7X1.j.j.j.O.g.w.~.l.v.^.~.l.|.w.",
"O JXXXx.oXhXa.e.t.t.0.a.Z.Q Z % A Q :.A.C.Z.S.S.d.d.d.u.B.B.B.B.<.H.,.T :.:.;.*.g.7XrXa v _ ( eX7XO.O.g.d.o.F.o.F k.~.c.c.|.gXH ",
"O CXoXM.n.~.o.i.D 0.q.X.S.K.I.J.% % A Y #.B.%.o.u.u.u.u.B.B.B.B.| H.@.S.B.F.+.a.w._.qXg # ] U eXeXy.| N.G.| K.N.Y D t._.'.F.9Xp.",
"$ VX[.oXk.|.R Z.p.t.9.X.%.%.W 5.G.| | V.H.C.u.u.u.u.u.u.B.B.B.B.#.u.a.@.f.i.9.q.w._.0X= o [ Y ).6XN.G.5.5.6.K.V.6XdXsX7X[.9XbX3.",
"# mX8X.X`.dXH.#.Z.+.&.S.H.H.G.V.| N.V.B.+.W @.S.u.u.u.u.u.B.B.B.y.u.a.o.f.0.0.w.2.{.2X= X P J.f.r.+.L.R W #.#.%.lX9X`.{.!.h..XD ",
"@ UX8X_.S sXA.:.B.u.g.*.-.;.A.:.N.V.B.#.$.Z.Z.@.*.*.d.d.u.d.u.u.B.Z.r.t.i.u.o.q.H 9X2Xp & B zXi.X.g.9Xs.f.S.%.g.9X}.Q.Q.~.E.pX0.",
"# LX8X_.O.9XeX7Xu.X.O.=.>.,.;.;.#.S.Z.@.$.*.&.&.].g.@.d.g.@.+.B.V.:.B.C.V.V.Z.+.a.7X3Xu 7 ' I NXdXcXk.L.a.X.a.O.].`.R.Q.c.~.pXh.",
"$ 7.[.E.`.].vXS G H k.j.=.*.@.D R R D S T o.X.a.&.g.&.X.a.S.X.A + L W S + + S C.%.zXmXa M N ] 0X).o.F.D F.r.@.g.].H `.}._.9XaXQ ",
"$ 5XXXx.H pXo./..Xx.c.R.R.!.`.}.7X7X7X9XwX].g.&.@.a.L.].P.f.X.+.Y Y %.Z.K.6Xy.A T V.) e 1 @X,X} Y Q Y Q Y S T S T '.7XF.I.PX6.) ",
"o PXpX2.hXG F.(.h.^.^.z.R.aXaXY.e.+.#.S.).L.d.S.S.d.L.].L.T T f.7X7X7X).F.6X9X(._.6X( # > l u I qXlX5.8XI.8X7XD S S R VX2XMXP g ",
"@ tX[.hX|.F 9XI.U.Y..XE.k.9.0.t.D.V.N.B.Z.#.W $.$.C.B.u.F.(.7X).(./._._.9XpX[.0. XR mXe 0 . ,X3XdXK.wX(.9X9X}.L.}.aXg.9XW 3X/ @ ",
"e g vXfX/.6X8X2XbXAXpX0.D u.i.4.Q 5.5.N.V.N.N.K.N.N.B.A.K.6XeXwX(./.}._.).).[.).0.D.mXo 1 r >XUXK.3.D.6X8XF.Y.9XT.L.9XK.PX$ a 3 ",
"j >XmXNXVX0XuX3XVX8XI.6XeX0X2XqXyXyX2XG.5.G.J.6XeX6X0X0X2XW 5.6XwX6X7X9X6X6X8XeX6X1X<Xr 2 k b / rX3Xp 4XkXqXwXI.8X8X4XKX$ B l , ",
"c v u % % Z = p ; ; * Z - - ; - % - - * * Z * * Z Z Z % % * * * Z + C A Z % % * A Z e < $Xz 3 @ @ $ = O ; ; * * * O O @   k z $X"
};
