/* XPM */
static char *_e7202272c5a4bccf5a1ca1330066b45lVO8hT0GthPAdMcW[] = {
/* columns rows colors chars-per-pixel */
"64 64 111 2 ",
"   c #721830",
".  c #0D2B45",
"X  c #112D47",
"o  c #122E48",
"O  c #15304A",
"+  c #1A324B",
"@  c #1A3751",
"#  c #1D3A54",
"$  c #22364F",
"%  c #233751",
"&  c #213C56",
"*  c #2A3F57",
"=  c #263E58",
"-  c #293F59",
";  c #2B405A",
":  c #32435C",
">  c #3C455E",
",  c #3F4960",
"<  c #41455F",
"1  c #434761",
"2  c #464962",
"3  c #4D4B65",
"4  c #514D67",
"5  c #544E68",
"6  c #575069",
"7  c #5B516A",
"8  c #63556C",
"9  c #6C5A6E",
"0  c #725C6F",
"q  c #755E71",
"w  c #795F72",
"e  c #776072",
"r  c #7A6173",
"t  c #7B6073",
"y  c #796173",
"u  c #7C6173",
"i  c #7D6173",
"p  c #7A6174",
"a  c #7C6274",
"s  c #7E6274",
"d  c #7F6274",
"f  c #7E6275",
"g  c #7E6375",
"h  c #7B6174",
"j  c #8D271F",
"k  c #8D271F",
"l  c #BD6300",
"z  c #BD6300",
"x  c #A2432C",
"c  c #EB7C00",
"v  c #B97340",
"b  c #806374",
"n  c #806375",
"m  c #816375",
"M  c #816376",
"N  c #826376",
"B  c #806476",
"V  c #816476",
"C  c #826476",
"Z  c #836476",
"A  c #826576",
"S  c #826477",
"D  c #836477",
"F  c #836577",
"G  c #856576",
"H  c #846477",
"J  c #846577",
"K  c #856577",
"L  c #856677",
"P  c #836476",
"I  c #866678",
"U  c #876678",
"Y  c #866678",
"T  c #886678",
"R  c #886778",
"E  c #896778",
"W  c #896779",
"Q  c #8A6779",
"!  c #8A6779",
"~  c #8A6879",
"^  c #8B6879",
"/  c #8C6879",
"(  c #8C687A",
")  c #8C697A",
"_  c #8D697A",
"`  c #8E697A",
"'  c #8E6A7A",
"]  c #8F6A7A",
"[  c #8D697A",
"{  c #906A7B",
"}  c #D84777",
"|  c #D84777",
" . c #DF9831",
".. c #DF9831",
"X. c #F0DD39",
"o. c #F0DD39",
"O. c #FF778B",
"+. c #FF778B",
"@. c #B7B7B7",
"#. c #CD8A86",
"$. c #CD8A86",
"%. c #DBB19D",
"&. c #DBB19D",
"*. c #FFB898",
"=. c #FFB898",
"-. c #E9CEAF",
";. c #E9CFAF",
":. c #E9CFAF",
">. c #F4E4C0",
",. c #E2E2E2",
"<. c white",
/* pixels */
"_ _ _ J _ _ _ _ _ _ _ J : . & 1 o . 1 ; - + = S _ _ Q _ _ _ _ Q > ; + + + = d _ _ _ _ _ _ _ _ _ _ _ > + - e > + + + + + = S _ _ ",
"_ _ _ > Q _ _ _ _ _ _ _ J o o & X . : r S d S _ _ J 8 ^ _ Q _ _ S d w w w M ^ _ Q Q Q Q Q Q Q _ _ _ S w M ^ S d d d d d M ^ _ _ ",
"_ _ _ 4 7 Q _ _ _ _ _ _ { o X 1 o X q _ _ _ _ _ _ 7 5 ^ ^ 7 Q _ _ 8 6 6 6 Q _ _ 7 6 6 6 6 6 6 U _ _ _ 7 J _ _ _ _ _ _ _ _ _ _ _ ",
"= - 4 5 5 5 5 5 5 5 5 6 Q ; . @ . X w 6 5 5 5 4 5 5 5 5 5 5 5 5 5 5 5 5 5 5 5 5 5 5 5 5 5 5 5 5 5 5 5 5 5 5 5 5 5 5 5 5 5 5 5 5 ",
"5 5 5 5 5 5 5 5 5 5 5 6 J _ . . . X w 6 5 5 5 o 5 5 5 5 5 5 5 5 5 4 5 4 5 5 5 5 5 5 5 5 5 5 5 5 5 5 5 5 5 5 5 5 5 5 5 5 5 5 5 5 ",
"5 5 5 5 5 5 5 5 5 5 5 5 6 Q . @ . X w 6 5 5 5 & 5 5 5 5 5 5 5 5 5 ; 4 ; 2 5 5 5 5 5 5 5 5 5 5 5 5 5 5 5 5 5 5 5 5 5 5 5 5 5 5 5 ",
"5 5 5 5 5 5 5 o 3 5 5 5 5 Q . @ . X w 6 5 5 5 4 5 5 5 5 5 5 5 4 - # S 6 5 5 5 5 5 5 5 5 5 5 5 5 5 - 2 5 5 5 5 5 5 5 5 ; 2 5 5 5 ",
"5 5 5 5 5 5 5 = 3 5 5 6 Q _ . . . X i _ 5 5 5 5 5 5 5 5 4 4 = # . & 4 5 5 5 4 5 5 5 5 5 5 5 5 5 5 ; 2 5 5 5 5 5 5 5 = 3 5 5 5 5 ",
"5 5 5 5 5 5 5 3 5 5 5 6 S ^ . . . X w _ 5 5 5 5 5 5 5 3 : $ + + @ 9 5 ;.>.5 % 3 ;.5 5 5 ;.5 5 5 5 q 6 5 5 5 5 5 5 5 - q 7 5 5 5 ",
"5 5 5 5 5 5 5 5 5 5 5 5 5 Q . . . . 4 Q 5 5 5 5 5 5 5 = e J J M ; 3 5 5 %.;.>.3 %.>.5 5 %.>.5 5 5 5 5 5 5 5 5 5 5 5 4 J 8 5 5 5 ",
"5 5 5 5 5 5 5 5 5 5 5 5 5 Q . . . . 4 Q 5 5 5 5 5 5 5 5 5 5 5 5 5 5 5 %.%.;.;.>.>.%.;.>.%.;.>.5 5 5 5 5 5 5 5 5 5 5 S 7 5 5 5 5 ",
"5 5 5 5 5 5 5 5 5 5 5 6 M ^ . . @ X q _ 5 5 4 5 5 5 5 5 5 5 5 5 5 ;.;.;.;.%.;.;.;.%.;.;.;.;.%.5 ;.5 5 5 5 5 5 5 5 5 6 5 5 5 5 5 ",
"5 5 5 5 5 5 5 5 5 5 5 6 Q _ . . . X i _ 5 4 - 3 5 5 5 5 5 5 5 ;.;.;.;.;.;.;.;.;.;.;.;.;.;.;.;.%.5 5 5 5 5 5 5 5 5 5 5 5 5 5 5 5 ",
"5 5 5 5 4 - = 5 5 5 5 6 Q ^ . . . X i _ 5 4 4 - 4 5 5 5 5 5 5 5 %.%.;.;.;.;.;.;.;.>.;.;.;.>.;.%.5 5 5 5 5 5 5 5 5 5 5 5 5 5 5 5 ",
"4 4 5 4 4 4 4 # & & = r _ = . @ . X 9 = & & & & & = 2 4 4 4 ;.;.;.;.;.;.;.;.;.;.;.;.>.>.>.;.;.>.%.4 - & & # 2 4 4 - & 2 4 4 - 2 ",
"= - 3 = = = = & & & # ; r O . @ . . + # & # # & & 1 ; & = = = %.%.;.;.;.;.;.;.%.%.%.;.>.;.%.%.;.;.;.# # & # = = = & & = = = & = ",
"& & = & & & & & & & . X + . . . . . . # & o . # & = & o # & & %.;.;.;.;.;.;.%.#.#.#.%.;.%.#.#.%.;.o . . @ O # & & & & & & & & & ",
". . . . . . . . . . . . . # . . . . . . . . . . . . . . . . ;.;.;.;.;.;.;.%.#.O.O.*.#.%.#.O.*.#.;.. . . . . . . . . . . . . . . ",
". . . . . . X . . . . . @ & @ o . . . . . . . . . X . . X %.%.;.;.O.O.;.;.#.O.} } O.*.#.#.*.} *.;.. . . . . . . . . . . . . . . ",
". . . . # # # . . . . @ & & & # # . @ # # # # # & 1 O # 1     ;.;.O.} ;.;.O.} X.l } O.O.*.} l O.;.;.. . . . . . . @ # o . . . . ",
". . . . X . & & & & . X X X & & o . X . & o X X X X . .     ;.;.;.O.} ;.;.O.}  .X.} } } }  .X.O.;.. . . . . . . . . . . . . . . ",
"w w w w w w d d e q 0 w w q d r r w q w d r w w q * o .   %.%.%.;.O.O.;.;.;.O.} } } O.O.*.} } ;.;.w w w : & o . . o o o o o % 8 ",
"_ _ _ _ _ _ _ Q : + + d _ 7 ^ 8 U _ 8 Q _ _ _ _ %.p ; %.      ;.;.;.O.;.;.;.;.O.O.O.O.O.O.*.O.;.>._ _ _ J S - . @ 9 M M M M S ^ ",
"_ _ _ ^ 6 6 6 7 q o . + 5 5 6 5 6 6 5 6 7 S 7 U _ %.%.%.%.  ;.;.%.;.;.;.;.;.;.;.} O.O.O.O.*.O.;.>._ 8 6 7 M S M S _ 7 6 S 8 J _ ",
"5 5 5 5 U 6 5 5 6 U = o . 3 5 5 5 5 5 5 %.%.5 5 %.%.j j j %.;.#.%.;.;.;.;.;.;.} O.O.j O.O.j O.;.>.j 5 5 5 5 5 5 5 5 5 5 5 5 5 5 ",
"5 5 5 5 6 5 5 5 5 6 q : X = 3 5 5 5 5 5 5 %.%.%.%.  j x v j #.#.%.;.;.%.;.;.;.} O.O.} j j } O.;.>.j 4 5 5 5 5 5 5 5 5 5 5 5 5 5 ",
"5 5 5 5 5 5 5 5 5 5 7 q = # + 3 5 %.5 5 %.%.%.%.%.  j x x j #.#.#.;.%.%.;.;.;.} O.O.O.} } O.O.>.j j 2 5 5 5 5 5 5 5 5 5 5 5 5 5 ",
"5 5 5 5 5 5 5 5 5 5 5 6 J - & 3 5 5 %.%.%.%.%.%.%.  j j j j %.#.#.#.#.%.;.;.;.} O.O.O.O.} O.O.;.  ;.O X o 1 5 5 5 5 5 5 5 5 5 5 ",
"4 : - 5 5 5 5 5 5 5 5 5 7 3 = ; 2 %.%.%.%.>.>.>.%.#.      %.%.%.#.#.#.%.%.;.;.;.@.<.} } O.<.@.;.#.;.>.& & - 3 5 5 5 5 5 5 5 5 5 ",
"5 3 3 5 5 5 5 5 5 5 5 5 5 5 d ; %.%.>.>.>.;.;.;.;.%.#.#.#.j j j %.#.#.#.%.;.;.;.O.<.,.@.,.<.O.;.j #.;.>.3 3 5 5 5 5 5 5 5 5 5 5 ",
"5 5 5 5 5 5 5 5 5 5 5 5 5 5 %.%.%.%.>.;.;.;.;.;.;.;.;.%.  j x v j %.#.#.#.%.;.;.} O.O.O.*.*.O.;.v j ;.;.>.5 5 5 5 5 5 5 5 5 5 5 ",
"5 5 5 5 5 5 5 5 5 5 5 5 5 5 J %.%.;.;.;.;.;.;.;.;.;.;.%.  j x x j %.%.#.#.%.;.;.;.;.O.O.O.;.;.%.x j ;.;.>.5 5 5 5 - 3 5 5 5 5 5 ",
"5 5 5 5 5 5 5 5 5 5 5 5 5 5 %.%.;.;.;.;.;.;.;.;.;.;.;.%.  j j j j %.%.%.%.#.%.;.;.;.;.>.>.;.%.j j j ;.;.>.5 5 5 5 3 - 3 5 5 5 5 ",
"5 5 5 5 5 5 5 5 5 5 5 5 5 5 %.;.;.;.;.;.;.;.;.;.;.;.;.;.#.      ;.j j j %.%.#.%.%.%.%.%.%.%.      #.;.;.;.5 5 5 5 5 3 5 5 5 5 5 ",
"5 5 5 5 5 5 5 5 5 5 5 5 5 %.%.;.;.;.;.;.;.;.%.;.;.;.;.;.%.#.#.#.  j x v j #.#.#.#.l   j x v j #.#.%.;.;.;.>.5 5 5 5 5 5 5 5 5 5 ",
"4 4 4 - ; 3 - = ; 3 5 4 %.%.;.;.;.;.;.;.;.%.%.%.;.;.;.;.;.;.%.%.  j x x j #. . .l l   j x x j #.#.%.%.;.;.>.4 4 4 ; = = = 2 4 4 ",
"; ; ; & & - & & & - 4 : ; %.;.;.;.;.;.;.%.%.#.#.%.;.;.;.;.;.%.%.  j j j j #.j j j l   j j j j #.#.#.%.;.;.;.: ; ; & & & & - ; ; ",
"o # & & # X # & & & = & %.;.;.;.;.;.;.%.%.& & #.#.%.;.;.;.;.;.%.#.      #.  j x v j l       = = #.#.%.%.;.;.>.& & o . . . . . . ",
". X o o o . o o o o o o %.;.;.;.;.;.;.%.o o o #.%.%.;.;.;.;.;.;.%.#.#.X. .  j x x j l l l o o o o #.#.%.%.;.;.o o . . . . . . . ",
". . . . . . . . . . . %.%.;.;.;.;.;.%.. . . #.#.%.%.;.;.;.;.%.%.%.X.X.X. .  j j j j  .l l . . . . #.#.#.%.%.O.*.. . . . . @ o . ",
". @ @ @ . @ @ . . . . %.;.%.;.;.;.;.@ . . @ #.#.%.%.%.;.;.%.%.X.X.X.X.X. . .       . .l 1 o . @ @ @ } } } O.O.O.*.# . . @ o . . ",
". . . . . X X & o # %.%.%.;.;.;.;.;.. . l   #.#.#.%.%.%.%.X.X.X.X.X.X. .X.X. . . . .l l & 1 o . . . . } . } . } O.. . . . . . . ",
"& + & 3 i r r d r p O.} O.%.;.} ;.O.* l l       #.#.X.X.X.X.X.X.X.X. . .X.X.X. . .l l o . & X . . & 2 O.- O.+ O.} o o & 1 q r r ",
"e q e S _ _ _ _ Q O.} O.} O.} } } O.*.l l l       X.X.X.X.X.X.X. . . .X.X. . .l l r q ; . @ . . . 9 M S r r q r q 0 0 e M _ _ _ ",
"_ _ _ _ 6 6 6 Q 7 } 6 O.6 O.5 6 6 l O. .l l l     j j X.X. . . . . . . . . .l l _ _ U > . @ . . X i _ _ _ _ _ 8 6 J 7 J _ _ 8 d ",
"7 7 7 7 5 5 5 > 4 5 5 O.5 O.5 5 5 l  .l l  .l l l       j j j j c c X.j j   l l  .l S 6 X @ . . @ p 8 7 7 7 7 5 5 7 5 7 7 7 5 6 ",
"5 5 5 5 5 5 5 3 5 5 5 5 5 5 5 5 5 l  .l l  .l X.l l l l         c c c     l l  .l X.X.7 o @ . . @ 4 5 5 5 5 5 5 5 5 5 5 5 5 5 5 ",
"5 5 5 5 5 5 5 5 5 5 5 5 5 5 5 5 l  . .l  .X.l  .X.X. . .l l l l l l l l l l  . .X.X.X.X.O @ X . < d 7 5 5 5 5 5 5 5 5 5 5 5 5 5 ",
"5 5 5 5 5 5 5 5 5 5 5 5 5 5 5 5 l  . .X. .X.X.l  .X.X.X.X.X.X.X.X.X.X.X.X. .X. .X.X.X.X.+ o @ . 2 J 7 5 5 5 5 5 5 5 5 5 5 5 5 5 ",
"5 5 5 5 5 5 5 5 5 5 5 5 5 5 5 5 l  . .X.l  .X.X.l l  .X.X.X.X.X.X.X.X.X.X.X.X. .X.X.X.X.X.. . . 9 _ 7 5 5 5 5 : 3 5 5 5 5 5 5 5 ",
"5 5 5 5 5 5 ; - - - 5 5 5 5 5 5 l  . .X.X.l X.X.X.X.X.X.X.X.X.X.X.X.X.X.X.X. .X.X.X.X.X.X. .. . 0 8 5 5 5 5 5 - 3 5 5 5 5 5 5 5 ",
"5 5 5 5 5 5 3 # o . = 3 5 5 5 5 l  .X.X.X.X. .X.X.X.X.X.X.X.X.X.X.X.X.X.X.X. .X.X.X.X.X.X.X.. . 0 7 5 5 5 5 5 3 5 5 5 5 5 5 5 5 ",
"5 5 5 5 4 : 4 = 9 q = ; 4 5 5 5 l  .X.X.X.X.X. .X.X.X.X.X.X.X.X.X.X.X.X.X.X.X.X.X.X.X.X.X.X.X.. 0 J 7 5 5 5 5 5 5 5 5 5 5 5 5 5 ",
"5 5 5 5 5 q 5 2 , 7 2 - 3 5 5 5 l  . .X.X.X.X.X.X.X.X.X.X.X.X.X.X.X.X.X.X.X.X.X.X.X.X.X.X.X.X.. 4 U 7 5 5 5 5 5 5 5 5 5 5 5 5 5 ",
"5 5 5 5 5 6 5 5 3 5 5 3 5 5 5 5 l  . .X.X.X.X.X.X.X.X.X.X.X.X.X.X.X.X. .X. .X.X. .X.X.X.X.X.X.. 9 _ 7 5 5 5 5 5 5 5 5 5 5 5 5 5 ",
"5 5 5 5 5 5 5 5 5 5 5 5 5 5 5 5 l  . . .X.X.X.X.X.X.X.X.X.X.X. .X.X. .X. . .X.X.X. . .X.X.X. .. q _ 7 5 5 5 5 5 5 5 5 5 5 5 5 5 ",
"5 5 5 5 5 5 5 5 5 5 5 5 5 5 - 3 l  . . . .X.X.X.X.X.X.X.X.X.X.X.X. .l  . .X.X.X.X. . . . . . .. q _ 7 5 5 5 5 5 5 5 5 5 5 5 5 5 ",
"5 5 5 4 - - - 5 5 5 5 4 ; - & #.#.l  . . .X.X.X.X.X.X.X.X.X.X. .l l  . .X.X.X. . . . . . .l . . 0 , ; 4 : - 3 5 ; - - 3 : - - 2 ",
"= = = = # & & = = = = = & & %.%.#.#.l l  . . .X.X.X.X.X.X.X. .& & l l  . . . . . . . .l l . . . = & & = & & = = & & & = & & & = ",
"& & & o o X # & & & & & & & %.%.%.#.#.#.l l  . . . . . . . .& o # & l l l l l l l l l + . . . . . o @ & & & & & & & o # & & & & ",
"o o o . . . o o o o o o o o %.%.%.%.%.#.#.#.l l l l l l o o o . o o #.#.#.#.#.#.#.#.. . . + . . . . o o o o o o o o . o o o o o ",
". . . . . . . . . . . . . . . ;.%.%.%.%.%.#.#.#.#.#.. . . . . . . . . #.#.#.%.%.#.%.%.;.;.# . . . . . . . @ . . . . . . . . . . ",
". . @ @ . . @ @ @ @ @ @ . @ . . ;.;.;.;.%.%.#.%.#.%.#.%.. . . . @ @ @ %.%.%.;.;.;.%.;.%.;.%.;.. . . . . + O . . . . @ @ @ @ X . ",
". . o o . . o o o o o o . o < > o ;.;.;.;.;.%.;.%.;.%.;.X . . . o o o . %.;.;.;.;.%.;.%.;.%.;.. . . . . o . . . . . o o o o . . "
};
