/* XPM */
static char *_05527f97f4f47f8e1c18e956c396eddt4BpDFmcbUV29fRF[] = {
/* columns rows colors chars-per-pixel */
"64 64 142 2 ",
"   c #0D2B45",
".  c #112D47",
"X  c #112E48",
"o  c #15304A",
"O  c #1A324B",
"+  c #1A3751",
"@  c #1D3A54",
"#  c #22364F",
"$  c #233650",
"%  c #213C56",
"&  c #293E57",
"*  c #263E58",
"=  c #293F59",
"-  c #2B405A",
";  c #32425C",
":  c #3D455E",
">  c #3F4960",
",  c #41455F",
"<  c #444761",
"1  c #464963",
"2  c #4D4B65",
"3  c #514D67",
"4  c #534E68",
"5  c #544E68",
"6  c #554E68",
"7  c #554F68",
"8  c #554F69",
"9  c #564F68",
"0  c #574F68",
"q  c #564F69",
"w  c #574F69",
"e  c #544E68",
"r  c #575069",
"t  c #585069",
"y  c #595069",
"u  c #59506A",
"i  c #5A506A",
"p  c #5A516A",
"a  c #5B516A",
"s  c #5B526A",
"d  c #5C516A",
"f  c #5C526A",
"g  c #5C526B",
"h  c #5D526B",
"j  c #5E526B",
"k  c #5E536B",
"l  c #5F536B",
"z  c #5F536C",
"x  c #5C526A",
"c  c #62566A",
"v  c #60536C",
"b  c #60546C",
"n  c #61546C",
"m  c #63556D",
"M  c #64556D",
"N  c #64566D",
"B  c #65566D",
"V  c #63556D",
"C  c #68586C",
"Z  c #6D5B6F",
"A  c #6E5A6E",
"S  c #6E5B6E",
"D  c #6C5A6D",
"F  c #725C6F",
"G  c #725C6F",
"H  c #715C70",
"J  c #705D70",
"K  c #735D71",
"L  c #755E71",
"P  c #765E71",
"I  c #775E71",
"U  c #775F71",
"Y  c #745E72",
"T  c #765E72",
"R  c #765F72",
"E  c #775F73",
"W  c #745E71",
"Q  c #785F71",
"!  c #785F72",
"~  c #795F72",
"^  c #7A5F72",
"/  c #785F72",
"(  c #766072",
")  c #776073",
"_  c #776072",
"`  c #796072",
"'  c #796173",
"]  c #7A6072",
"[  c #7B6073",
"{  c #7A6173",
"}  c #7C6173",
"|  c #7D6173",
" . c #7A6174",
".. c #7C6274",
"X. c #7E6274",
"o. c #7F6274",
"O. c #7F6275",
"+. c #7F6375",
"@. c #7B6173",
"#. c #806374",
"$. c #806375",
"%. c #816375",
"&. c #806376",
"*. c #816376",
"=. c #826376",
"-. c #806476",
";. c #816476",
":. c #826476",
">. c #836476",
",. c #826576",
"<. c #826477",
"1. c #836477",
"2. c #836577",
"3. c #856576",
"4. c #846477",
"5. c #846577",
"6. c #856577",
"7. c #866577",
"8. c #856677",
"9. c #836477",
"0. c #856578",
"q. c #866678",
"w. c #876678",
"e. c #866678",
"r. c #886678",
"t. c #886778",
"y. c #896778",
"u. c #896779",
"i. c #8A6779",
"p. c #896779",
"a. c #8A6879",
"s. c #8B6879",
"d. c #8C6879",
"f. c #8C687A",
"g. c #8C697A",
"h. c #8D697A",
"j. c #8E697A",
"k. c #8E697B",
"l. c #8E6A7A",
"z. c #8F6A7A",
"x. c #8D697A",
"c. c #906A7B",
/* pixels */
"h.h.h.5.h.h.h.h.h.h.h.5.;   % < X   < - = O * <.h.h.i.h.h.h.h.i.: - O O O * o.h.h.h.h.h.h.h.h.h.h.h.: O = ) : O O O O O * <.h.h.",
"h.h.h.: i.h.h.h.h.h.h.h.5.X X % .   ; { <.o.<.h.h.5.n s.h.i.h.h.<.o.! ! ! *.s.h.i.i.i.i.i.i.i.h.h.h.<.! *.s.<.o.o.o.o.o.*.s.h.h.",
"h.h.h.4 f i.h.h.h.h.h.h.c.X . < X . P h.h.h.h.h.h.f 5 s.s.f i.h.h.n t t r i.h.h.z t t t t t t w.h.h.h.f 5.h.h.h.h.h.h.h.h.h.h.h.",
"* = 4 5 5 5 5 5 5 5 5 t i.-   +   . ! t 5 5 5 4 5 5 5 5 5 5 5 5 5 5 5 5 5 5 5 5 5 5 5 5 5 5 5 5 5 5 5 5 5 5 5 5 5 5 5 5 5 5 5 5 ",
"5 5 5 5 5 5 5 5 5 5 5 t 5.h.      . ! t 5 5 5 X 4 5 5 5 5 5 5 5 5 4 5 4 4 5 5 5 5 5 5 5 5 5 5 5 5 5 5 5 5 5 5 5 5 5 5 5 5 5 5 5 ",
"5 5 5 5 5 5 5 5 5 5 5 5 t i.  +   . ! t 5 5 5 % 4 5 5 5 5 5 5 5 5 - 4 - 1 5 5 5 5 5 5 5 5 5 5 5 5 5 5 5 5 5 5 5 5 5 5 5 5 5 5 5 ",
"5 5 5 5 5 5 5 X 2 5 5 5 4 i.  +   . ! t 5 5 5 4 5 5 5 5 5 5 5 4 = @ <.t 4 5 5 5 5 5 5 5 5 5 5 5 4 = 1 5 5 5 5 5 5 5 4 - 1 5 5 5 ",
"5 5 5 5 5 5 5 * 2 5 5 t i.h.      . | h.5 5 5 5 5 5 5 5 4 4 * @   % 4 5 5 5 4 5 5 5 5 5 5 5 5 5 4 - 1 5 5 5 5 5 5 5 * 2 5 5 5 5 ",
"5 5 5 5 5 5 5 2 4 5 5 t <.s.      . ! h.5 5 5 5 5 5 5 2 ; # O O + A 5 5 5 5 $ 2 5 5 5 5 5 5 5 5 5 P t 5 5 5 5 5 5 5 = P f 5 5 5 ",
"5 5 5 5 5 5 5 5 5 5 5 5 5 i.        4 i.5 5 5 5 5 5 5 * ) 5.5.*.- 2 5 5 5 5 = 2 5 5 5 5 5 5 5 5 5 5 5 5 5 5 5 5 5 5 4 5.n 5 5 5 ",
"5 5 5 5 5 5 5 5 5 5 5 5 5 i.        4 i.5 5 5 5 5 5 5 4 5 5 5 5 4 5 5 5 5 5 4 5 5 5 5 5 5 5 5 5 5 5 5 5 5 5 5 5 5 4 <.f 5 5 5 5 ",
"5 5 5 5 5 5 5 5 5 5 5 t *.s.    + . P h.5 5 4 5 5 5 5 5 5 5 5 5 5 5 5 5 5 5 5 5 5 5 5 4 4 4 5 5 5 5 5 5 5 5 5 5 5 5 t 5 5 5 5 5 ",
"5 5 5 5 5 5 5 5 5 5 5 t i.h.      . | h.5 4 = 2 5 5 5 5 5 5 5 5 5 5 5 5 5 5 5 5 5 5 4 - % 2 5 5 5 5 5 5 5 5 5 5 5 5 5 5 5 5 5 5 ",
"5 5 5 5 4 = * 4 4 4 4 t i.s.      . | h.5 4 4 = 4 4 5 5 5 5 5 4 4 4 4 4 4 4 5 5 5 5 5 4 4 4 5 5 5 5 4 4 4 4 5 5 5 4 4 5 5 5 4 5 ",
"4 4 5 4 4 4 4 @ % % * { h.*   +   . A * % % % % % * 1 4 4 4 4 % % % % % % @ 1 4 4 4 5 5 4 4 4 4 4 4 = % % @ 1 4 4 = % 1 4 4 = 1 ",
"* = 2 * * * * % % % @ - { o   +     O @ % @ @ % % < - % * * * % @ @ % @ % % * * * * 1 2 = * * * * % @ @ % @ * * * % % * * * % * ",
"% % * % % % % % % %   . O             @ % X   @ % * % X @ % % @ X   @ o + % % % % % * * % % % % % X     + o @ % % % % % % % % % ",
"                          @                                                                                                     ",
"                        + % + X                   .     .                                                                       ",
"        @ @ @         + % % % @ @   + @ @ @ @ @ % < o @ < X     + @     + @ @     @ @ @ @ @                       + @ X         ",
"        .   % % % %   . . . % % X   .   % X . . . .     % @               % % % X . . . .                                       ",
"! ! ! ! ! ! o.o.) P F ! ! P o.{ { ! P ! o.{ ! ! P & X   : *     + < P ! ! o. .o.{ ! P ! ! ; . + D ! ! ! ; % X     X X X X X % c ",
"h.h.h.h.h.h.h.i.; O O o.h.f s.B w.h.B i.h.h.h.h.h. .-   X @   @ 1 o.h.h.h.h.B i.h.h.B 5.h.o.* P s.h.h.h.5.<.=   + A *.*.*.*.<.s.",
"h.h.h.s.t t t f J X   O 6 5 t 5 t t 5 t t <.f w.h.h.5.X : o   2 *.n s.i.B t 5 t t t 5 t t t 2 t <.h.n t f *.<.*.<.h.f t <.v 5.h.",
"5 5 5 5 w.t 5 5 t w.* X   2 5 5 5 5 5 5 5 5 5 5 5 o.v . < X   5 5.f 5 5 5 5 5 5 5 5 5 5 5 5 5 5 5 5 5 5 5 5 5 5 5 5 5 5 5 5 5 5 ",
"5 5 5 5 t 5 5 5 5 t P ; . * 2 4 5 5 5 5 5 5 5 5 5 f *.. X     <.n 5 5 5 5 5 5 5 5 5 5 5 5 5 5 5 2 2 4 5 5 5 5 5 5 5 5 5 5 5 5 5 ",
"5 5 5 5 5 5 5 5 5 5 f J * @ O 2 5 5 5 5 5 5 5 5 5 t w.X +     i.t 5 5 5 5 5 5 5 5 5 5 5 5 5 5 5 $ O 2 5 5 5 5 5 5 5 5 5 5 5 5 5 ",
"5 4 4 5 5 5 5 5 5 5 5 t 5.= % 2 5 5 5 5 5 5 5 5 5 <.h.X +     i.f 5 5 5 5 5 5 5 5 5 5 5 5 5 5 5 = % o . X < 5 5 5 5 5 5 5 5 5 5 ",
"4 ; = 4 5 5 5 5 5 5 5 5 f 2 * - 1 5 5 5 5 5 5 5 5 <.h.X +     s.5.t 5 5 5 5 5 5 4 4 4 4 5 5 5 5 2 J ; % % = 2 5 5 5 5 5 5 5 5 5 ",
"4 2 2 5 5 5 5 5 5 5 5 5 5 5 o.- * 4 5 5 5 5 5 5 5 f w..       h.h.f 5 5 5 5 5 5 = * = 1 5 5 5 5 5 t 4 2 2 2 4 5 5 5 5 5 5 5 5 5 ",
"5 5 5 5 5 5 5 5 5 5 5 5 5 5 t 1 * 4 5 5 5 5 5 5 5 *.h.X : X   t w.f 5 5 5 5 5 5 o.* % % 4 5 5 5 5 5 5 5 5 5 5 5 5 5 5 5 5 5 5 5 ",
"5 5 5 5 5 5 5 5 5 5 5 5 5 5 5.- % 4 5 5 5 5 5 5 5 t w.X +     s.s.f 5 5 5 5 5 5 5 w.i.s.- 2 5 5 5 5 4 4 5 5 5 5 5 = 2 5 5 5 5 5 ",
"5 5 5 5 5 5 5 5 5 5 5 5 5 5 t 5  .5 5 5 5 5 5 5 5 t w.X +     i.n 5 5 5 5 4 5 5 5 t t t 2 4 5 5 5 5 - o 2 5 5 5 5 2 = 2 5 5 5 5 ",
"5 5 5 5 5 5 5 5 5 5 5 5 5 5 5 5 t 5 5 5 5 5 5 5 5 o.h.X +     s.w.t 5 5 5 5 5 5 5 5 5 5 5 5 5 5 5 5 2 2 4 5 5 5 5 5 2 4 5 5 5 5 ",
"5 5 5 4 4 5 4 4 4 5 5 5 5 5 5 5 5 5 5 4 4 = % 2 5 5.h..       s.h.f 4 - 1 5 5 5 5 5 5 5 5 5 5 4 4 4 4 5 5 5 5 5 5 4 4 4 4 5 5 5 ",
"4 4 4 = - 2 = * - 2 5 4 4 4 4 4 4 5 2 - * % % * = : { .       *.: = * * 1 4 4 4 4 4 4 4 4 4 5 ; - = * 2 4 4 4 4 4 - * * * 1 4 4 ",
"- - - % % = % % % = 4 - - - - - = 4 - % % % % % % % $   +     : % % % % = - - - - - - - - - 4 2 1 * % = - 1 ; - - % % % % = - - ",
"X @ % % @ . @ % % % * % % % % % % * % % % % % % @ X   + @             @ % % % % X   @ @ % % * * * % % % % * % % % X             ",
"  . X X X   X X X X X . X X X . X X X X X X X X X     @ o             . X X X X     . X X X X X X X X X X X X X X               ",
"                                                  + @ % +                                                                 + X   ",
"  + + +   + +                 + + + +     + + +   X @ X @ @                       + + + < X   + + + @           + @     + X     ",
"          . . % X @ .         .           .         .   .                               % < X                                   ",
"% O % 2 | { { o.{  .{ { { { * A 6 * & 2 ! P - * { { { { P - o & F ! { { { { 6 2 2 * % X . % .     % 1 2 = * O % O X X % < P { { ",
") P ) <.h.h.h.h.i.n h.h.h.h.2 5.5.{ { *.h.h. .{ h.h.h.h.h. .P { s.B h.h.h.h.5.<.<.{ J -   +       D *.<.{ { P { P G G ) *.h.h.h.",
"h.h.h.s.t t t i.f 5 t t t t 5 t t t f i.h.i.f t h.h.h.h.i.f w.h.h.f t t t i.h.h.h.h.w.:   +     . | h.h.h.h.h.n t 5.f 5.h.h.B o.",
"f f f f 5 5 5 : 4 5 5 5 5 5 5 5 5 5 5 f f f 5 5 f f f f f 5 f f f 5 5 5 5 f f f f f <.t . +     +  .B f f f f 5 5 f 5 f f f 5 t ",
"5 5 5 5 5 5 5 2 4 5 5 5 5 5 5 5 5 5 5 5 5 5 5 5 5 5 5 5 5 5 5 5 5 5 5 5 5 5 5 5 5 5 *.z X +     + 4 5 5 5 5 5 5 5 5 5 5 5 5 5 5 ",
"5 5 5 5 5 5 5 5 5 5 5 5 5 5 5 5 5 5 5 5 5 5 5 5 5 5 5 5 5 5 5 5 5 5 5 5 5 5 ; 2 5 5 5.i.o +     , o.f 5 5 5 5 5 5 5 5 5 5 5 5 5 ",
"5 5 5 5 5 5 5 5 5 5 5 5 5 5 5 5 5 4 ; 4 5 5 5 5 5 5 5 5 5 5 5 5 5 5 5 5 5 5 = = 2 5 n 5.O X +   2 5.f 5 5 5 5 4 5 5 5 5 5 5 5 5 ",
"5 5 5 5 5 5 5 5 5 5 5 5 5 5 5 5 5 5 P t 5 5 5 5 5 5 5 5 5 5 5 5 5 5 5 5 5 5 2 * 2 5 o.h.O       A h.f 5 5 5 5 ; 2 5 5 5 5 5 5 5 ",
"5 5 5 5 5 5 - = = = 4 5 5 5 5 5 5 5 f 5 5 5 5 5 5 5 5 5 5 5 5 4 # O 4 5 5 5 5 1 4 5 n w.O       F B 5 5 5 5 5 = 2 5 5 5 5 5 5 5 ",
"5 5 5 5 5 5 2 @ X   * 2 5 5 5 5 5 5 5 5 5 5 5 5 5 5 5 5 5 5 5 * . + 4 5 5 5 5 5 5 5 5 t X +     F f 5 5 5 5 5 2 4 5 5 5 5 5 5 5 ",
"5 5 5 5 4 ; 4 * D P * - 4 5 5 5 5 5 5 5 5 5 5 4 4 5 5 5 5 5 ; O , 1 5 5 5 5 5 5 5 5 t o.o +     F 5.f 5 5 5 5 5 5 5 5 5 5 5 5 5 ",
"5 5 5 5 5 J 5 1 > f 1 = 2 5 5 5 5 5 5 5 5 5 5 $ O 2 5 5 5 5 J A 5 5 5 5 5 5 5 5 5 5  .h.O +     4 w.f 5 5 5 5 5 5 5 5 5 5 5 5 5 ",
"5 5 5 5 5 t 5 5 2 5 5 2 4 5 5 5 5 5 5 5 5 4 - @ 2 4 5 5 5 5 t t 5 5 4 ; 1 5 5 5 5 5 5.h.O +     A h.f 5 5 5 5 5 5 5 5 5 5 5 5 5 ",
"5 5 5 5 5 5 5 5 5 5 5 5 5 5 4 5 5 5 5 5 5 4 1 1 5 5 5 5 5 5 5 5 5 5 5 1 ; 4 5 4 5 5 5.h.O +     J h.f 5 5 5 5 5 5 5 5 5 5 5 5 5 ",
"5 5 5 5 5 5 5 5 5 5 5 5 5 4 = 2 5 5 5 5 5 5 5 5 5 5 5 5 5 5 5 5 5 5 5 4 2 4 4 - 2 5 5.h.O       J h.f 5 5 5 5 5 5 5 5 5 5 5 5 5 ",
"5 5 5 4 = = = 5 5 5 5 4 - = % = = 5 5 5 - 2 5 5 = = = 4 - = = = = = 4 - = = = % = - *.h.O +     F > - 4 ; = 2 5 - = = 2 ; = = 1 ",
"* * * * @ % % * * * * * % % % % % * = 4 2 - * * % % % * 1 * % % % % * % % % % % % % -  .O       * % % * % % * * % % % * % % % * ",
"% % % X X . @ % % % % % % % % @ X X X * * o X X X X + % * % % X @ % % % % % % % % % o O           X + % % % % % % % X @ % % % % ",
"X X X       X X X X X X X X X X       X X           X X X X X   X X X X X X X X X X       O         X X X X X X X X   X X X X X ",
"                                                                          + X         + @ @               +                     ",
"    + +     + + + + + +   +       +           : + +   +         + + + X O X         + @ % : X           O o         + + + + .   ",
"    X X     X X X X X X   X , : X X           O X X   @ .       X X X   X   O + + + @ o X O             X           X X X X     "
};
